M48
;Layer_Color=9474304
;FILE_FORMAT=2:4
INCH,TZ
;TYPE=PLATED
T1F00S00C0.0315
T2F00S00C0.0394
T3F00S00C0.0400
T4F00S00C0.0750
T5F00S00C0.1299
%
T01
X28700Y29035
Y33365
X29935Y33350
X34265
T02
X15748Y31282
X16838
X17929
X19019
X20110
X19565Y32400
X18474
X17384
X16293
X43695
X44785
X45876
X46421Y31282
X45331
X44240
X43150
X47512
X46967Y32400
T03
X48450Y24900
X49450
X41040
X40040
X32630
X31630
X24220
X23220
X15810
X14810
T04
X50450Y22900
X46450
X42040
X38040
X33630
X29630
X25220
X21220
X16810
X12810
T05
X13010Y31841
X22848
X40411
X50250
M30
