G04*
G04 #@! TF.GenerationSoftware,Altium Limited,Altium Designer,22.11.1 (43)*
G04*
G04 Layer_Color=16711935*
%FSLAX25Y25*%
%MOIN*%
G70*
G04*
G04 #@! TF.SameCoordinates,2508BC3E-BDE3-465E-931E-0E6F767F2DAF*
G04*
G04*
G04 #@! TF.FilePolarity,Negative*
G04*
G01*
G75*
%ADD21C,0.06000*%
%ADD22C,0.10300*%
%ADD23C,0.06706*%
%ADD24R,0.06706X0.06706*%
%ADD25C,0.20288*%
%ADD26C,0.05524*%
D21*
X232197Y249000D02*
D03*
X242197D02*
D03*
X400399D02*
D03*
X410399D02*
D03*
X316298D02*
D03*
X326298D02*
D03*
X148096D02*
D03*
X158096D02*
D03*
X484500D02*
D03*
X494500D02*
D03*
D22*
X252197Y229000D02*
D03*
X212197D02*
D03*
X420399D02*
D03*
X380399D02*
D03*
X336298D02*
D03*
X296298D02*
D03*
X168096D02*
D03*
X128096D02*
D03*
X504500D02*
D03*
X464500D02*
D03*
D23*
X469665Y324000D02*
D03*
X458759D02*
D03*
X447854D02*
D03*
X436948D02*
D03*
X431496Y312819D02*
D03*
X442401D02*
D03*
X453307D02*
D03*
X464212D02*
D03*
X195648Y324000D02*
D03*
X184742D02*
D03*
X173837D02*
D03*
X162931D02*
D03*
X157478Y312819D02*
D03*
X168384D02*
D03*
X179289D02*
D03*
X190195D02*
D03*
D24*
X475118D02*
D03*
X201100D02*
D03*
D25*
X502500Y318409D02*
D03*
X404114D02*
D03*
X228482D02*
D03*
X130096D02*
D03*
D26*
X287000Y290347D02*
D03*
Y333653D02*
D03*
X299346Y333500D02*
D03*
X342653D02*
D03*
M02*
