G04*
G04 #@! TF.GenerationSoftware,Altium Limited,Altium Designer,22.11.1 (43)*
G04*
G04 Layer_Physical_Order=2*
G04 Layer_Color=16711680*
%FSLAX25Y25*%
%MOIN*%
G70*
G04*
G04 #@! TF.SameCoordinates,2508BC3E-BDE3-465E-931E-0E6F767F2DAF*
G04*
G04*
G04 #@! TF.FilePolarity,Positive*
G04*
G01*
G75*
%ADD21C,0.06000*%
%ADD27C,0.02000*%
%ADD28C,0.09500*%
%ADD29C,0.05906*%
%ADD30R,0.05906X0.05906*%
%ADD31C,0.19488*%
%ADD32C,0.04724*%
G36*
X532500Y100000D02*
X100000D01*
Y358000D01*
X532500D01*
Y100000D01*
D02*
G37*
%LPC*%
G36*
X343096Y336862D02*
X342211D01*
X341356Y336633D01*
X340589Y336190D01*
X339963Y335564D01*
X339521Y334798D01*
X339291Y333943D01*
Y333057D01*
X339521Y332202D01*
X339963Y331436D01*
X340589Y330810D01*
X341356Y330367D01*
X342211Y330138D01*
X343096D01*
X343951Y330367D01*
X344718Y330810D01*
X345344Y331436D01*
X345787Y332202D01*
X346016Y333057D01*
Y333943D01*
X345787Y334798D01*
X345344Y335564D01*
X344718Y336190D01*
X343951Y336633D01*
X343096Y336862D01*
D02*
G37*
G36*
X299789D02*
X298904D01*
X298049Y336633D01*
X297282Y336190D01*
X296656Y335564D01*
X296213Y334798D01*
X295984Y333943D01*
Y333057D01*
X296213Y332202D01*
X296656Y331436D01*
X297282Y330810D01*
X298049Y330367D01*
X298904Y330138D01*
X299789D01*
X300644Y330367D01*
X301411Y330810D01*
X302037Y331436D01*
X302480Y332202D01*
X302709Y333057D01*
Y333943D01*
X302480Y334798D01*
X302037Y335564D01*
X301411Y336190D01*
X300644Y336633D01*
X299789Y336862D01*
D02*
G37*
G36*
X196168Y327953D02*
X196148D01*
Y324500D01*
X199600D01*
Y324520D01*
X199331Y325526D01*
X198811Y326427D01*
X198075Y327163D01*
X197173Y327683D01*
X196168Y327953D01*
D02*
G37*
G36*
X195148D02*
X195127D01*
X194122Y327683D01*
X193220Y327163D01*
X192485Y326427D01*
X191964Y325526D01*
X191695Y324520D01*
Y324500D01*
X195148D01*
Y327953D01*
D02*
G37*
G36*
X199600Y323500D02*
X196148D01*
Y320047D01*
X196168D01*
X197173Y320317D01*
X198075Y320837D01*
X198811Y321573D01*
X199331Y322474D01*
X199600Y323480D01*
Y323500D01*
D02*
G37*
G36*
X195148D02*
X191695D01*
Y323480D01*
X191964Y322474D01*
X192485Y321573D01*
X193220Y320837D01*
X194122Y320317D01*
X195127Y320047D01*
X195148D01*
Y323500D01*
D02*
G37*
G36*
X188695D02*
X185242D01*
Y320047D01*
X185263D01*
X186268Y320317D01*
X187169Y320837D01*
X187905Y321573D01*
X188426Y322474D01*
X188695Y323480D01*
Y323500D01*
D02*
G37*
G36*
X479071Y316772D02*
X475618D01*
Y313319D01*
X479071D01*
Y316772D01*
D02*
G37*
G36*
X452807D02*
X452786D01*
X451781Y316502D01*
X450880Y315982D01*
X450144Y315246D01*
X449623Y314345D01*
X449354Y313339D01*
Y313319D01*
X452807D01*
Y316772D01*
D02*
G37*
G36*
X479071Y312319D02*
X475618D01*
Y308866D01*
X479071D01*
Y312319D01*
D02*
G37*
G36*
X277984Y338539D02*
X168427D01*
X167646Y338384D01*
X166985Y337942D01*
X156036Y326993D01*
X155594Y326332D01*
X155439Y325552D01*
Y316206D01*
X155051Y315982D01*
X154315Y315246D01*
X153795Y314345D01*
X153525Y313339D01*
Y312298D01*
X153795Y311293D01*
X154315Y310392D01*
X155051Y309656D01*
X155953Y309136D01*
X156958Y308866D01*
X157999D01*
X159004Y309136D01*
X159905Y309656D01*
X160641Y310392D01*
X161162Y311293D01*
X161431Y312298D01*
Y313339D01*
X161162Y314345D01*
X160641Y315246D01*
X159905Y315982D01*
X159518Y316206D01*
Y321116D01*
X160018Y321323D01*
X160504Y320837D01*
X161405Y320317D01*
X162411Y320047D01*
X162431D01*
Y324000D01*
X163431D01*
Y320047D01*
X163451D01*
X164457Y320317D01*
X165358Y320837D01*
X165845Y321323D01*
X166345Y321116D01*
Y316206D01*
X165957Y315982D01*
X165221Y315246D01*
X164700Y314345D01*
X164431Y313339D01*
Y312298D01*
X164700Y311293D01*
X165221Y310392D01*
X165957Y309656D01*
X166858Y309136D01*
X167863Y308866D01*
X168904D01*
X169910Y309136D01*
X170811Y309656D01*
X171547Y310392D01*
X172067Y311293D01*
X172337Y312298D01*
Y313339D01*
X172067Y314345D01*
X171547Y315246D01*
X170811Y315982D01*
X170423Y316206D01*
Y321116D01*
X170923Y321323D01*
X171409Y320837D01*
X172311Y320317D01*
X173316Y320047D01*
X173337D01*
Y324000D01*
X174337D01*
Y320047D01*
X174357D01*
X175362Y320317D01*
X176264Y320837D01*
X176750Y321323D01*
X177250Y321116D01*
Y316206D01*
X176862Y315982D01*
X176126Y315246D01*
X175606Y314345D01*
X175337Y313339D01*
Y312298D01*
X175606Y311293D01*
X176126Y310392D01*
X176862Y309656D01*
X177764Y309136D01*
X178769Y308866D01*
X179810D01*
X180815Y309136D01*
X181716Y309656D01*
X182452Y310392D01*
X182973Y311293D01*
X183242Y312298D01*
Y313339D01*
X182973Y314345D01*
X182452Y315246D01*
X181716Y315982D01*
X181328Y316206D01*
Y321116D01*
X181828Y321323D01*
X182315Y320837D01*
X183216Y320317D01*
X184222Y320047D01*
X184242D01*
Y324000D01*
X184742D01*
Y324500D01*
X188695D01*
Y324520D01*
X188426Y325526D01*
X187905Y326427D01*
X187169Y327163D01*
X186268Y327683D01*
X185736Y327826D01*
X185519Y328402D01*
X185558Y328461D01*
X223442D01*
X223562Y327961D01*
X222851Y327599D01*
X221483Y326605D01*
X220287Y325409D01*
X219293Y324041D01*
X218525Y322534D01*
X218003Y320925D01*
X217738Y319255D01*
Y317564D01*
X218003Y315894D01*
X218525Y314285D01*
X219293Y312778D01*
X220287Y311410D01*
X221483Y310214D01*
X222851Y309220D01*
X224358Y308453D01*
X225966Y307930D01*
X227637Y307665D01*
X229328D01*
X230998Y307930D01*
X232607Y308453D01*
X234113Y309220D01*
X235482Y310214D01*
X236677Y311410D01*
X237671Y312778D01*
X238439Y314285D01*
X238962Y315894D01*
X239226Y317564D01*
Y319255D01*
X238962Y320925D01*
X238439Y322534D01*
X237671Y324041D01*
X236677Y325409D01*
X235482Y326605D01*
X234113Y327599D01*
X233402Y327961D01*
X233523Y328461D01*
X274655D01*
X303892Y299223D01*
X304554Y298781D01*
X305334Y298626D01*
X305334Y298626D01*
X448165D01*
X448946Y298781D01*
X449607Y299223D01*
X460201Y309818D01*
X460524Y310301D01*
X460838Y310355D01*
X461054Y310352D01*
X461104Y310337D01*
X461785Y309656D01*
X462686Y309136D01*
X463692Y308866D01*
X463727D01*
X463918Y308404D01*
X437819Y282306D01*
X347564D01*
X347564Y282306D01*
X346784Y282151D01*
X346122Y281709D01*
X317290Y252876D01*
X316825Y253000D01*
X315771D01*
X314754Y252728D01*
X313842Y252201D01*
X313097Y251456D01*
X312571Y250544D01*
X312298Y249527D01*
Y248474D01*
X312571Y247457D01*
X313097Y246544D01*
X313842Y245800D01*
X314754Y245273D01*
X315771Y245000D01*
X316825D01*
X317842Y245273D01*
X318754Y245800D01*
X319499Y246544D01*
X320025Y247457D01*
X320298Y248474D01*
Y249527D01*
X320173Y249992D01*
X348409Y278227D01*
X438664D01*
X439444Y278383D01*
X440106Y278825D01*
X470665Y309384D01*
X471165Y309176D01*
Y308866D01*
X474618D01*
Y312819D01*
Y316772D01*
X471704D01*
Y320613D01*
X472092Y320837D01*
X472828Y321573D01*
X473348Y322474D01*
X473618Y323480D01*
Y324520D01*
X473348Y325526D01*
X472828Y326427D01*
X472092Y327163D01*
X471191Y327683D01*
X470185Y327953D01*
X469145D01*
X468139Y327683D01*
X467238Y327163D01*
X466502Y326427D01*
X465982Y325526D01*
X465712Y324520D01*
Y323480D01*
X465982Y322474D01*
X466502Y321573D01*
X467238Y320837D01*
X467626Y320613D01*
Y315703D01*
X467126Y315495D01*
X466639Y315982D01*
X465738Y316502D01*
X464733Y316772D01*
X464712D01*
Y312819D01*
X463712D01*
Y316772D01*
X463692D01*
X462686Y316502D01*
X461785Y315982D01*
X461299Y315495D01*
X460799Y315703D01*
Y320613D01*
X461187Y320837D01*
X461922Y321573D01*
X462443Y322474D01*
X462712Y323480D01*
Y324520D01*
X462443Y325526D01*
X461922Y326427D01*
X461187Y327163D01*
X460285Y327683D01*
X459280Y327953D01*
X458239D01*
X457234Y327683D01*
X456332Y327163D01*
X455596Y326427D01*
X455076Y325526D01*
X454807Y324520D01*
Y323480D01*
X455076Y322474D01*
X455596Y321573D01*
X456332Y320837D01*
X456720Y320613D01*
Y315703D01*
X456220Y315495D01*
X455734Y315982D01*
X454832Y316502D01*
X453827Y316772D01*
X453807D01*
Y312819D01*
X453307D01*
Y312319D01*
X449354D01*
Y312298D01*
X449623Y311293D01*
X450144Y310392D01*
X450880Y309656D01*
X451781Y309136D01*
X452786Y308866D01*
X452829D01*
X453020Y308404D01*
X447321Y302705D01*
X412797D01*
X412606Y303167D01*
X425172Y315733D01*
X428166D01*
X428357Y315270D01*
X428333Y315246D01*
X427812Y314345D01*
X427543Y313339D01*
Y313319D01*
X431496D01*
X435448D01*
Y313339D01*
X435179Y314345D01*
X434659Y315246D01*
X434634Y315270D01*
X434825Y315733D01*
X439071D01*
X439263Y315270D01*
X439238Y315246D01*
X438718Y314345D01*
X438448Y313339D01*
Y313319D01*
X442401D01*
X446354D01*
Y313339D01*
X446085Y314345D01*
X445564Y315246D01*
X444828Y315982D01*
X443927Y316502D01*
X443868Y316518D01*
X443739Y317001D01*
X446901Y320163D01*
X447333Y320047D01*
X448374D01*
X449380Y320317D01*
X450281Y320837D01*
X451017Y321573D01*
X451537Y322474D01*
X451807Y323480D01*
Y324520D01*
X451537Y325526D01*
X451017Y326427D01*
X450281Y327163D01*
X449380Y327683D01*
X448374Y327953D01*
X447333D01*
X446328Y327683D01*
X445427Y327163D01*
X444691Y326427D01*
X444171Y325526D01*
X443901Y324520D01*
Y323480D01*
X444017Y323047D01*
X440781Y319811D01*
X438518D01*
X438453Y320311D01*
X438474Y320317D01*
X439375Y320837D01*
X440111Y321573D01*
X440632Y322474D01*
X440901Y323480D01*
Y324520D01*
X440632Y325526D01*
X440111Y326427D01*
X439375Y327163D01*
X438474Y327683D01*
X437469Y327953D01*
X436428D01*
X435423Y327683D01*
X434521Y327163D01*
X433785Y326427D01*
X433562Y326039D01*
X426313D01*
X425533Y325884D01*
X424871Y325442D01*
X414999Y315570D01*
X414573Y315832D01*
X414593Y315894D01*
X414858Y317564D01*
Y319255D01*
X414593Y320925D01*
X414071Y322534D01*
X413303Y324041D01*
X412309Y325409D01*
X411113Y326605D01*
X409745Y327599D01*
X408238Y328366D01*
X406630Y328889D01*
X404959Y329153D01*
X403268D01*
X401598Y328889D01*
X399990Y328366D01*
X398483Y327599D01*
X397114Y326605D01*
X395919Y325409D01*
X394925Y324041D01*
X394157Y322534D01*
X393634Y320925D01*
X393370Y319255D01*
Y317564D01*
X393634Y315894D01*
X394157Y314285D01*
X394925Y312778D01*
X395919Y311410D01*
X397114Y310214D01*
X398483Y309220D01*
X398541Y309191D01*
X398424Y308704D01*
X308664D01*
X287558Y329810D01*
X287712Y330363D01*
X288298Y330521D01*
X289064Y330963D01*
X289690Y331589D01*
X290133Y332356D01*
X290362Y333211D01*
Y334096D01*
X290133Y334951D01*
X289690Y335718D01*
X289064Y336344D01*
X288298Y336787D01*
X287443Y337016D01*
X286557D01*
X285702Y336787D01*
X284936Y336344D01*
X284310Y335718D01*
X283867Y334951D01*
X283710Y334366D01*
X283157Y334212D01*
X279426Y337942D01*
X278765Y338384D01*
X277984Y338539D01*
D02*
G37*
G36*
X446354Y312319D02*
X442901D01*
Y308866D01*
X442922D01*
X443927Y309136D01*
X444828Y309656D01*
X445564Y310392D01*
X446085Y311293D01*
X446354Y312298D01*
Y312319D01*
D02*
G37*
G36*
X441901D02*
X438448D01*
Y312298D01*
X438718Y311293D01*
X439238Y310392D01*
X439974Y309656D01*
X440875Y309136D01*
X441881Y308866D01*
X441901D01*
Y312319D01*
D02*
G37*
G36*
X435448D02*
X431996D01*
Y308866D01*
X432016D01*
X433021Y309136D01*
X433923Y309656D01*
X434659Y310392D01*
X435179Y311293D01*
X435448Y312298D01*
Y312319D01*
D02*
G37*
G36*
X430996D02*
X427543D01*
Y312298D01*
X427812Y311293D01*
X428333Y310392D01*
X429069Y309656D01*
X429970Y309136D01*
X430975Y308866D01*
X430996D01*
Y312319D01*
D02*
G37*
G36*
X205053Y316772D02*
X197148D01*
Y308866D01*
X205053D01*
Y316772D01*
D02*
G37*
G36*
X190715D02*
X189674D01*
X188669Y316502D01*
X187768Y315982D01*
X187032Y315246D01*
X186511Y314345D01*
X186242Y313339D01*
Y312298D01*
X186511Y311293D01*
X187032Y310392D01*
X187768Y309656D01*
X188669Y309136D01*
X189674Y308866D01*
X190715D01*
X191720Y309136D01*
X192622Y309656D01*
X193358Y310392D01*
X193878Y311293D01*
X194148Y312298D01*
Y313339D01*
X193878Y314345D01*
X193358Y315246D01*
X192622Y315982D01*
X191720Y316502D01*
X190715Y316772D01*
D02*
G37*
G36*
X503345Y329153D02*
X501654D01*
X499984Y328889D01*
X498375Y328366D01*
X496869Y327599D01*
X495500Y326605D01*
X494305Y325409D01*
X493310Y324041D01*
X492543Y322534D01*
X492020Y320925D01*
X491755Y319255D01*
Y317564D01*
X492020Y315894D01*
X492543Y314285D01*
X493310Y312778D01*
X494305Y311410D01*
X495500Y310214D01*
X496869Y309220D01*
X498375Y308453D01*
X499984Y307930D01*
X501654Y307665D01*
X503345D01*
X505016Y307930D01*
X506624Y308453D01*
X508131Y309220D01*
X509499Y310214D01*
X510695Y311410D01*
X511689Y312778D01*
X512457Y314285D01*
X512979Y315894D01*
X513244Y317564D01*
Y319255D01*
X512979Y320925D01*
X512457Y322534D01*
X511689Y324041D01*
X510695Y325409D01*
X509499Y326605D01*
X508131Y327599D01*
X506624Y328366D01*
X505016Y328889D01*
X503345Y329153D01*
D02*
G37*
G36*
X130942D02*
X129251D01*
X127580Y328889D01*
X125972Y328366D01*
X124465Y327599D01*
X123097Y326605D01*
X121901Y325409D01*
X120907Y324041D01*
X120140Y322534D01*
X119617Y320925D01*
X119352Y319255D01*
Y317564D01*
X119617Y315894D01*
X120140Y314285D01*
X120907Y312778D01*
X121901Y311410D01*
X123097Y310214D01*
X124465Y309220D01*
X125972Y308453D01*
X127580Y307930D01*
X129251Y307665D01*
X130942D01*
X132612Y307930D01*
X134221Y308453D01*
X135728Y309220D01*
X137096Y310214D01*
X138292Y311410D01*
X139286Y312778D01*
X140053Y314285D01*
X140576Y315894D01*
X140840Y317564D01*
Y319255D01*
X140576Y320925D01*
X140053Y322534D01*
X139286Y324041D01*
X138292Y325409D01*
X137096Y326605D01*
X135728Y327599D01*
X134221Y328366D01*
X132612Y328889D01*
X130942Y329153D01*
D02*
G37*
G36*
X287500Y293693D02*
Y290846D01*
X290347D01*
X290133Y291644D01*
X289690Y292411D01*
X289064Y293037D01*
X288298Y293479D01*
X287500Y293693D01*
D02*
G37*
G36*
X286500D02*
X285702Y293479D01*
X284936Y293037D01*
X284310Y292411D01*
X283867Y291644D01*
X283653Y290846D01*
X286500D01*
Y293693D01*
D02*
G37*
G36*
X290347Y289846D02*
X287500D01*
Y287000D01*
X288298Y287213D01*
X289064Y287656D01*
X289690Y288282D01*
X290133Y289049D01*
X290347Y289846D01*
D02*
G37*
G36*
X286500D02*
X283653D01*
X283867Y289049D01*
X284310Y288282D01*
X284936Y287656D01*
X285702Y287213D01*
X286500Y287000D01*
Y289846D01*
D02*
G37*
G36*
X242724Y253000D02*
X242697D01*
Y249500D01*
X246197D01*
Y249527D01*
X245924Y250544D01*
X245398Y251456D01*
X244653Y252201D01*
X243741Y252728D01*
X242724Y253000D01*
D02*
G37*
G36*
X158623D02*
X158596D01*
Y249500D01*
X162096D01*
Y249527D01*
X161823Y250544D01*
X161297Y251456D01*
X160552Y252201D01*
X159640Y252728D01*
X158623Y253000D01*
D02*
G37*
G36*
X495027D02*
X495000D01*
Y249500D01*
X498500D01*
Y249527D01*
X498227Y250544D01*
X497701Y251456D01*
X496956Y252201D01*
X496044Y252728D01*
X495027Y253000D01*
D02*
G37*
G36*
X326825D02*
X326798D01*
Y249500D01*
X330298D01*
Y249527D01*
X330025Y250544D01*
X329499Y251456D01*
X328754Y252201D01*
X327842Y252728D01*
X326825Y253000D01*
D02*
G37*
G36*
X410926D02*
X410899D01*
Y249500D01*
X414399D01*
Y249527D01*
X414126Y250544D01*
X413600Y251456D01*
X412855Y252201D01*
X411943Y252728D01*
X410926Y253000D01*
D02*
G37*
G36*
X157596D02*
X157569D01*
X156552Y252728D01*
X155640Y252201D01*
X154895Y251456D01*
X154369Y250544D01*
X154096Y249527D01*
Y249500D01*
X157596D01*
Y253000D01*
D02*
G37*
G36*
X494000D02*
X493973D01*
X492956Y252728D01*
X492044Y252201D01*
X491299Y251456D01*
X490773Y250544D01*
X490500Y249527D01*
Y249500D01*
X494000D01*
Y253000D01*
D02*
G37*
G36*
X241697D02*
X241670D01*
X240653Y252728D01*
X239741Y252201D01*
X238996Y251456D01*
X238470Y250544D01*
X238197Y249527D01*
Y249500D01*
X241697D01*
Y253000D01*
D02*
G37*
G36*
X409899D02*
X409872D01*
X408855Y252728D01*
X407943Y252201D01*
X407198Y251456D01*
X406672Y250544D01*
X406399Y249527D01*
Y249500D01*
X409899D01*
Y253000D01*
D02*
G37*
G36*
X325798D02*
X325771D01*
X324754Y252728D01*
X323842Y252201D01*
X323097Y251456D01*
X322571Y250544D01*
X322298Y249527D01*
Y249500D01*
X325798D01*
Y253000D01*
D02*
G37*
G36*
X498500Y248500D02*
X495000D01*
Y245000D01*
X495027D01*
X496044Y245273D01*
X496956Y245800D01*
X497701Y246544D01*
X498227Y247457D01*
X498500Y248474D01*
Y248500D01*
D02*
G37*
G36*
X494000D02*
X490500D01*
Y248474D01*
X490773Y247457D01*
X491299Y246544D01*
X492044Y245800D01*
X492956Y245273D01*
X493973Y245000D01*
X494000D01*
Y248500D01*
D02*
G37*
G36*
X485027Y253000D02*
X483973D01*
X482956Y252728D01*
X482044Y252201D01*
X481299Y251456D01*
X480773Y250544D01*
X480500Y249527D01*
Y248474D01*
X480773Y247457D01*
X481299Y246544D01*
X482044Y245800D01*
X482956Y245273D01*
X483973Y245000D01*
X485027D01*
X486044Y245273D01*
X486956Y245800D01*
X487701Y246544D01*
X488227Y247457D01*
X488500Y248474D01*
Y249527D01*
X488227Y250544D01*
X487701Y251456D01*
X486956Y252201D01*
X486044Y252728D01*
X485027Y253000D01*
D02*
G37*
G36*
X414399Y248500D02*
X410899D01*
Y245000D01*
X410926D01*
X411943Y245273D01*
X412855Y245800D01*
X413600Y246544D01*
X414126Y247457D01*
X414399Y248474D01*
Y248500D01*
D02*
G37*
G36*
X409899D02*
X406399D01*
Y248474D01*
X406672Y247457D01*
X407198Y246544D01*
X407943Y245800D01*
X408855Y245273D01*
X409872Y245000D01*
X409899D01*
Y248500D01*
D02*
G37*
G36*
X400926Y253000D02*
X399872D01*
X398855Y252728D01*
X397943Y252201D01*
X397198Y251456D01*
X396672Y250544D01*
X396399Y249527D01*
Y248474D01*
X396672Y247457D01*
X397198Y246544D01*
X397943Y245800D01*
X398855Y245273D01*
X399872Y245000D01*
X400926D01*
X401943Y245273D01*
X402855Y245800D01*
X403600Y246544D01*
X404126Y247457D01*
X404399Y248474D01*
Y249527D01*
X404126Y250544D01*
X403600Y251456D01*
X402855Y252201D01*
X401943Y252728D01*
X400926Y253000D01*
D02*
G37*
G36*
X330298Y248500D02*
X326798D01*
Y245000D01*
X326825D01*
X327842Y245273D01*
X328754Y245800D01*
X329499Y246544D01*
X330025Y247457D01*
X330298Y248474D01*
Y248500D01*
D02*
G37*
G36*
X325798D02*
X322298D01*
Y248474D01*
X322571Y247457D01*
X323097Y246544D01*
X323842Y245800D01*
X324754Y245273D01*
X325771Y245000D01*
X325798D01*
Y248500D01*
D02*
G37*
G36*
X246197D02*
X242697D01*
Y245000D01*
X242724D01*
X243741Y245273D01*
X244653Y245800D01*
X245398Y246544D01*
X245924Y247457D01*
X246197Y248474D01*
Y248500D01*
D02*
G37*
G36*
X241697D02*
X238197D01*
Y248474D01*
X238470Y247457D01*
X238996Y246544D01*
X239741Y245800D01*
X240653Y245273D01*
X241670Y245000D01*
X241697D01*
Y248500D01*
D02*
G37*
G36*
X232724Y253000D02*
X231670D01*
X230653Y252728D01*
X229741Y252201D01*
X228996Y251456D01*
X228470Y250544D01*
X228197Y249527D01*
Y248474D01*
X228470Y247457D01*
X228996Y246544D01*
X229741Y245800D01*
X230653Y245273D01*
X231670Y245000D01*
X232724D01*
X233741Y245273D01*
X234653Y245800D01*
X235398Y246544D01*
X235924Y247457D01*
X236197Y248474D01*
Y249527D01*
X235924Y250544D01*
X235398Y251456D01*
X234653Y252201D01*
X233741Y252728D01*
X232724Y253000D01*
D02*
G37*
G36*
X162096Y248500D02*
X158596D01*
Y245000D01*
X158623D01*
X159640Y245273D01*
X160552Y245800D01*
X161297Y246544D01*
X161823Y247457D01*
X162096Y248474D01*
Y248500D01*
D02*
G37*
G36*
X157596D02*
X154096D01*
Y248474D01*
X154369Y247457D01*
X154895Y246544D01*
X155640Y245800D01*
X156552Y245273D01*
X157569Y245000D01*
X157596D01*
Y248500D01*
D02*
G37*
G36*
X148623Y253000D02*
X147569D01*
X146552Y252728D01*
X145640Y252201D01*
X144895Y251456D01*
X144369Y250544D01*
X144096Y249527D01*
Y248474D01*
X144369Y247457D01*
X144895Y246544D01*
X145640Y245800D01*
X146552Y245273D01*
X147569Y245000D01*
X148623D01*
X149640Y245273D01*
X150552Y245800D01*
X151297Y246544D01*
X151823Y247457D01*
X152096Y248474D01*
Y249527D01*
X151823Y250544D01*
X151297Y251456D01*
X150552Y252201D01*
X149640Y252728D01*
X148623Y253000D01*
D02*
G37*
G36*
X505257Y234750D02*
X503743D01*
X502281Y234358D01*
X500969Y233601D01*
X499899Y232530D01*
X499142Y231219D01*
X498750Y229757D01*
Y228243D01*
X499142Y226781D01*
X499899Y225469D01*
X500969Y224399D01*
X502281Y223642D01*
X503743Y223250D01*
X505257D01*
X506719Y223642D01*
X508031Y224399D01*
X509101Y225469D01*
X509858Y226781D01*
X510250Y228243D01*
Y229757D01*
X509858Y231219D01*
X509101Y232530D01*
X508031Y233601D01*
X506719Y234358D01*
X505257Y234750D01*
D02*
G37*
G36*
X465257D02*
X463743D01*
X462281Y234358D01*
X460969Y233601D01*
X459899Y232530D01*
X459142Y231219D01*
X458750Y229757D01*
Y228243D01*
X459142Y226781D01*
X459899Y225469D01*
X460969Y224399D01*
X462281Y223642D01*
X463743Y223250D01*
X465257D01*
X466719Y223642D01*
X468031Y224399D01*
X469101Y225469D01*
X469858Y226781D01*
X470250Y228243D01*
Y229757D01*
X469858Y231219D01*
X469101Y232530D01*
X468031Y233601D01*
X466719Y234358D01*
X465257Y234750D01*
D02*
G37*
G36*
X421156D02*
X419642D01*
X418180Y234358D01*
X416868Y233601D01*
X415798Y232530D01*
X415041Y231219D01*
X414649Y229757D01*
Y228243D01*
X415041Y226781D01*
X415798Y225469D01*
X416868Y224399D01*
X418180Y223642D01*
X419642Y223250D01*
X421156D01*
X422618Y223642D01*
X423930Y224399D01*
X425000Y225469D01*
X425757Y226781D01*
X426149Y228243D01*
Y229757D01*
X425757Y231219D01*
X425000Y232530D01*
X423930Y233601D01*
X422618Y234358D01*
X421156Y234750D01*
D02*
G37*
G36*
X381156D02*
X379642D01*
X378180Y234358D01*
X376868Y233601D01*
X375798Y232530D01*
X375041Y231219D01*
X374649Y229757D01*
Y228243D01*
X375041Y226781D01*
X375798Y225469D01*
X376868Y224399D01*
X378180Y223642D01*
X379642Y223250D01*
X381156D01*
X382618Y223642D01*
X383930Y224399D01*
X385000Y225469D01*
X385757Y226781D01*
X386149Y228243D01*
Y229757D01*
X385757Y231219D01*
X385000Y232530D01*
X383930Y233601D01*
X382618Y234358D01*
X381156Y234750D01*
D02*
G37*
G36*
X337055D02*
X335541D01*
X334079Y234358D01*
X332767Y233601D01*
X331697Y232530D01*
X330940Y231219D01*
X330548Y229757D01*
Y228243D01*
X330940Y226781D01*
X331697Y225469D01*
X332767Y224399D01*
X334079Y223642D01*
X335541Y223250D01*
X337055D01*
X338517Y223642D01*
X339829Y224399D01*
X340899Y225469D01*
X341656Y226781D01*
X342048Y228243D01*
Y229757D01*
X341656Y231219D01*
X340899Y232530D01*
X339829Y233601D01*
X338517Y234358D01*
X337055Y234750D01*
D02*
G37*
G36*
X297055D02*
X295541D01*
X294079Y234358D01*
X292767Y233601D01*
X291697Y232530D01*
X290940Y231219D01*
X290548Y229757D01*
Y228243D01*
X290940Y226781D01*
X291697Y225469D01*
X292767Y224399D01*
X294079Y223642D01*
X295541Y223250D01*
X297055D01*
X298517Y223642D01*
X299829Y224399D01*
X300899Y225469D01*
X301656Y226781D01*
X302048Y228243D01*
Y229757D01*
X301656Y231219D01*
X300899Y232530D01*
X299829Y233601D01*
X298517Y234358D01*
X297055Y234750D01*
D02*
G37*
G36*
X252954D02*
X251440D01*
X249978Y234358D01*
X248666Y233601D01*
X247596Y232530D01*
X246839Y231219D01*
X246447Y229757D01*
Y228243D01*
X246839Y226781D01*
X247596Y225469D01*
X248666Y224399D01*
X249978Y223642D01*
X251440Y223250D01*
X252954D01*
X254416Y223642D01*
X255728Y224399D01*
X256798Y225469D01*
X257555Y226781D01*
X257947Y228243D01*
Y229757D01*
X257555Y231219D01*
X256798Y232530D01*
X255728Y233601D01*
X254416Y234358D01*
X252954Y234750D01*
D02*
G37*
G36*
X212954D02*
X211440D01*
X209978Y234358D01*
X208666Y233601D01*
X207596Y232530D01*
X206839Y231219D01*
X206447Y229757D01*
Y228243D01*
X206839Y226781D01*
X207596Y225469D01*
X208666Y224399D01*
X209978Y223642D01*
X211440Y223250D01*
X212954D01*
X214416Y223642D01*
X215728Y224399D01*
X216798Y225469D01*
X217555Y226781D01*
X217947Y228243D01*
Y229757D01*
X217555Y231219D01*
X216798Y232530D01*
X215728Y233601D01*
X214416Y234358D01*
X212954Y234750D01*
D02*
G37*
G36*
X168853D02*
X167339D01*
X165877Y234358D01*
X164565Y233601D01*
X163495Y232530D01*
X162738Y231219D01*
X162346Y229757D01*
Y228243D01*
X162738Y226781D01*
X163495Y225469D01*
X164565Y224399D01*
X165877Y223642D01*
X167339Y223250D01*
X168853D01*
X170315Y223642D01*
X171627Y224399D01*
X172697Y225469D01*
X173454Y226781D01*
X173846Y228243D01*
Y229757D01*
X173454Y231219D01*
X172697Y232530D01*
X171627Y233601D01*
X170315Y234358D01*
X168853Y234750D01*
D02*
G37*
G36*
X128853D02*
X127339D01*
X125877Y234358D01*
X124565Y233601D01*
X123495Y232530D01*
X122738Y231219D01*
X122346Y229757D01*
Y228243D01*
X122738Y226781D01*
X123495Y225469D01*
X124565Y224399D01*
X125877Y223642D01*
X127339Y223250D01*
X128853D01*
X130315Y223642D01*
X131627Y224399D01*
X132697Y225469D01*
X133454Y226781D01*
X133846Y228243D01*
Y229757D01*
X133454Y231219D01*
X132697Y232530D01*
X131627Y233601D01*
X130315Y234358D01*
X128853Y234750D01*
D02*
G37*
%LPD*%
G36*
X173947Y333999D02*
X166942Y326993D01*
X166621Y326514D01*
X166300Y326461D01*
X166085Y326465D01*
X166042Y326479D01*
X165358Y327163D01*
X164457Y327683D01*
X163451Y327953D01*
X163417D01*
X163225Y328415D01*
X169271Y334461D01*
X173756D01*
X173947Y333999D01*
D02*
G37*
D21*
X232197Y249000D02*
D03*
X242197D02*
D03*
X400399D02*
D03*
X410399D02*
D03*
X316298D02*
D03*
X326298D02*
D03*
X148096D02*
D03*
X158096D02*
D03*
X484500D02*
D03*
X494500D02*
D03*
D27*
X469665Y311267D02*
Y324000D01*
X438664Y280267D02*
X469665Y311267D01*
X347564Y280267D02*
X438664D01*
X316298Y249000D02*
X347564Y280267D01*
X277984Y336500D02*
X307819Y306665D01*
X408978D01*
X426313Y324000D01*
X410221Y303665D02*
X424327Y317772D01*
X306576Y303665D02*
X410221D01*
X276742Y333500D02*
X306576Y303665D01*
X157478Y325552D02*
X168427Y336500D01*
X277984D01*
X168384Y325552D02*
X176332Y333500D01*
X276742D01*
X184238Y330500D02*
X275499D01*
X305334Y300665D01*
X179289Y325552D02*
X184238Y330500D01*
X305334Y300665D02*
X448165D01*
X458759Y311260D01*
Y324000D01*
X424327Y317772D02*
X441626D01*
X447854Y324000D01*
X179289Y312819D02*
Y325552D01*
X168384Y312819D02*
Y325552D01*
X157478Y312819D02*
Y325552D01*
X426313Y324000D02*
X436948D01*
D28*
X252197Y229000D02*
D03*
X212197D02*
D03*
X420399D02*
D03*
X380399D02*
D03*
X336298D02*
D03*
X296298D02*
D03*
X168096D02*
D03*
X128096D02*
D03*
X504500D02*
D03*
X464500D02*
D03*
D29*
X469665Y324000D02*
D03*
X458759D02*
D03*
X447854D02*
D03*
X436948D02*
D03*
X431496Y312819D02*
D03*
X442401D02*
D03*
X453307D02*
D03*
X464212D02*
D03*
X195648Y324000D02*
D03*
X184742D02*
D03*
X173837D02*
D03*
X162931D02*
D03*
X157478Y312819D02*
D03*
X168384D02*
D03*
X179289D02*
D03*
X190195D02*
D03*
D30*
X475118D02*
D03*
X201100D02*
D03*
D31*
X502500Y318409D02*
D03*
X404114D02*
D03*
X228482D02*
D03*
X130096D02*
D03*
D32*
X287000Y290347D02*
D03*
Y333653D02*
D03*
X299346Y333500D02*
D03*
X342653D02*
D03*
M02*
