G04*
G04 #@! TF.GenerationSoftware,Altium Limited,Altium Designer,22.11.1 (43)*
G04*
G04 Layer_Color=8388736*
%FSLAX25Y25*%
%MOIN*%
G70*
G04*
G04 #@! TF.SameCoordinates,CBAEC89D-BC59-4BCD-ABD7-6F5F8566886D*
G04*
G04*
G04 #@! TF.FilePolarity,Negative*
G04*
G01*
G75*
%ADD18R,0.05131X0.04737*%
%ADD19R,0.04737X0.05131*%
%ADD20C,0.06706*%
%ADD21R,0.06706X0.06706*%
%ADD22C,0.20288*%
%ADD23C,0.06000*%
%ADD24C,0.10300*%
%ADD25C,0.01981*%
%ADD26C,0.02769*%
%ADD27C,0.05800*%
G36*
X301544Y303010D02*
X301544Y303021D01*
X301546Y303031D01*
X301548Y303041D01*
X301550Y303051D01*
X301553Y303061D01*
X301556Y303070D01*
X301560Y303080D01*
X301565Y303089D01*
X301570Y303098D01*
X301575Y303107D01*
X301581Y303116D01*
X301587Y303124D01*
X301594Y303132D01*
X301601Y303139D01*
X301608Y303146D01*
X301616Y303153D01*
X301624Y303159D01*
X301633Y303165D01*
X301642Y303170D01*
X301651Y303175D01*
X301660Y303180D01*
X301670Y303184D01*
X301679Y303187D01*
X301689Y303190D01*
X301699Y303192D01*
X301709Y303194D01*
X301720Y303196D01*
X301730Y303197D01*
X301740Y303197D01*
X304260D01*
X304270Y303197D01*
X304280Y303196D01*
X304291Y303194D01*
X304301Y303192D01*
X304311Y303190D01*
X304321Y303187D01*
X304330Y303184D01*
X304340Y303180D01*
X304349Y303175D01*
X304358Y303170D01*
X304367Y303165D01*
X304376Y303159D01*
X304384Y303153D01*
X304392Y303146D01*
X304399Y303139D01*
X304406Y303132D01*
X304413Y303124D01*
X304419Y303116D01*
X304425Y303107D01*
X304430Y303098D01*
X304435Y303089D01*
X304440Y303080D01*
X304444Y303070D01*
X304447Y303061D01*
X304450Y303051D01*
X304452Y303041D01*
X304454Y303031D01*
X304456Y303021D01*
X304456Y303010D01*
X304457Y303000D01*
Y296740D01*
X304456Y296730D01*
X304456Y296720D01*
X304454Y296709D01*
X304452Y296699D01*
X304450Y296689D01*
X304447Y296679D01*
X304444Y296670D01*
X304440Y296660D01*
X304435Y296651D01*
X304430Y296642D01*
X304425Y296633D01*
X304419Y296624D01*
X304413Y296616D01*
X304406Y296608D01*
X304399Y296601D01*
X304392Y296594D01*
X304384Y296587D01*
X304376Y296581D01*
X304367Y296575D01*
X304358Y296570D01*
X304349Y296565D01*
X304340Y296560D01*
X304330Y296556D01*
X304321Y296553D01*
X304311Y296550D01*
X304301Y296548D01*
X304291Y296546D01*
X304280Y296544D01*
X304270Y296544D01*
X304260Y296543D01*
X301740D01*
X301730Y296544D01*
X301720Y296544D01*
X301709Y296546D01*
X301699Y296548D01*
X301689Y296550D01*
X301679Y296553D01*
X301670Y296556D01*
X301660Y296560D01*
X301651Y296565D01*
X301642Y296570D01*
X301633Y296575D01*
X301624Y296581D01*
X301616Y296587D01*
X301608Y296594D01*
X301601Y296601D01*
X301594Y296608D01*
X301587Y296616D01*
X301581Y296624D01*
X301575Y296633D01*
X301570Y296642D01*
X301565Y296651D01*
X301560Y296660D01*
X301556Y296670D01*
X301553Y296679D01*
X301550Y296689D01*
X301548Y296699D01*
X301546Y296709D01*
X301544Y296720D01*
X301544Y296730D01*
X301543Y296740D01*
Y303000D01*
X301544Y303010D01*
D02*
G37*
G36*
X306544D02*
X306544Y303021D01*
X306546Y303031D01*
X306548Y303041D01*
X306550Y303051D01*
X306553Y303061D01*
X306556Y303070D01*
X306560Y303080D01*
X306565Y303089D01*
X306570Y303098D01*
X306575Y303107D01*
X306581Y303116D01*
X306587Y303124D01*
X306594Y303132D01*
X306601Y303139D01*
X306608Y303146D01*
X306616Y303153D01*
X306624Y303159D01*
X306633Y303165D01*
X306642Y303170D01*
X306651Y303175D01*
X306660Y303180D01*
X306670Y303184D01*
X306679Y303187D01*
X306689Y303190D01*
X306699Y303192D01*
X306709Y303194D01*
X306720Y303196D01*
X306730Y303197D01*
X306740Y303197D01*
X309260D01*
X309270Y303197D01*
X309280Y303196D01*
X309291Y303194D01*
X309301Y303192D01*
X309311Y303190D01*
X309321Y303187D01*
X309330Y303184D01*
X309340Y303180D01*
X309349Y303175D01*
X309358Y303170D01*
X309367Y303165D01*
X309376Y303159D01*
X309384Y303153D01*
X309392Y303146D01*
X309399Y303139D01*
X309406Y303132D01*
X309413Y303124D01*
X309419Y303116D01*
X309425Y303107D01*
X309430Y303098D01*
X309435Y303089D01*
X309440Y303080D01*
X309444Y303070D01*
X309447Y303061D01*
X309450Y303051D01*
X309452Y303041D01*
X309454Y303031D01*
X309456Y303021D01*
X309456Y303010D01*
X309457Y303000D01*
Y296740D01*
X309456Y296730D01*
X309456Y296720D01*
X309454Y296709D01*
X309452Y296699D01*
X309450Y296689D01*
X309447Y296679D01*
X309444Y296670D01*
X309440Y296660D01*
X309435Y296651D01*
X309430Y296642D01*
X309425Y296633D01*
X309419Y296624D01*
X309413Y296616D01*
X309406Y296608D01*
X309399Y296601D01*
X309392Y296594D01*
X309384Y296587D01*
X309376Y296581D01*
X309367Y296575D01*
X309358Y296570D01*
X309349Y296565D01*
X309340Y296560D01*
X309330Y296556D01*
X309321Y296553D01*
X309311Y296550D01*
X309301Y296548D01*
X309291Y296546D01*
X309280Y296544D01*
X309270Y296544D01*
X309260Y296543D01*
X306740D01*
X306730Y296544D01*
X306720Y296544D01*
X306709Y296546D01*
X306699Y296548D01*
X306689Y296550D01*
X306679Y296553D01*
X306670Y296556D01*
X306660Y296560D01*
X306651Y296565D01*
X306642Y296570D01*
X306633Y296575D01*
X306624Y296581D01*
X306616Y296587D01*
X306608Y296594D01*
X306601Y296601D01*
X306594Y296608D01*
X306587Y296616D01*
X306581Y296624D01*
X306575Y296633D01*
X306570Y296642D01*
X306565Y296651D01*
X306560Y296660D01*
X306556Y296670D01*
X306553Y296679D01*
X306550Y296689D01*
X306548Y296699D01*
X306546Y296709D01*
X306544Y296720D01*
X306544Y296730D01*
X306543Y296740D01*
Y303000D01*
X306544Y303010D01*
D02*
G37*
G36*
X311544D02*
X311544Y303021D01*
X311546Y303031D01*
X311548Y303041D01*
X311550Y303051D01*
X311553Y303061D01*
X311556Y303070D01*
X311560Y303080D01*
X311565Y303089D01*
X311570Y303098D01*
X311575Y303107D01*
X311581Y303116D01*
X311587Y303124D01*
X311594Y303132D01*
X311601Y303139D01*
X311608Y303146D01*
X311616Y303153D01*
X311624Y303159D01*
X311633Y303165D01*
X311642Y303170D01*
X311651Y303175D01*
X311660Y303180D01*
X311670Y303184D01*
X311679Y303187D01*
X311689Y303190D01*
X311699Y303192D01*
X311709Y303194D01*
X311720Y303196D01*
X311730Y303197D01*
X311740Y303197D01*
X314260D01*
X314270Y303197D01*
X314280Y303196D01*
X314291Y303194D01*
X314301Y303192D01*
X314311Y303190D01*
X314321Y303187D01*
X314330Y303184D01*
X314340Y303180D01*
X314349Y303175D01*
X314358Y303170D01*
X314367Y303165D01*
X314376Y303159D01*
X314384Y303153D01*
X314392Y303146D01*
X314399Y303139D01*
X314406Y303132D01*
X314413Y303124D01*
X314419Y303116D01*
X314425Y303107D01*
X314430Y303098D01*
X314435Y303089D01*
X314440Y303080D01*
X314444Y303070D01*
X314447Y303061D01*
X314450Y303051D01*
X314452Y303041D01*
X314454Y303031D01*
X314456Y303021D01*
X314456Y303010D01*
X314457Y303000D01*
Y296740D01*
X314456Y296730D01*
X314456Y296720D01*
X314454Y296709D01*
X314452Y296699D01*
X314450Y296689D01*
X314447Y296679D01*
X314444Y296670D01*
X314440Y296660D01*
X314435Y296651D01*
X314430Y296642D01*
X314425Y296633D01*
X314419Y296624D01*
X314413Y296616D01*
X314406Y296608D01*
X314399Y296601D01*
X314392Y296594D01*
X314384Y296587D01*
X314376Y296581D01*
X314367Y296575D01*
X314358Y296570D01*
X314349Y296565D01*
X314340Y296560D01*
X314330Y296556D01*
X314321Y296553D01*
X314311Y296550D01*
X314301Y296548D01*
X314291Y296546D01*
X314280Y296544D01*
X314270Y296544D01*
X314260Y296543D01*
X311740D01*
X311730Y296544D01*
X311720Y296544D01*
X311709Y296546D01*
X311699Y296548D01*
X311689Y296550D01*
X311679Y296553D01*
X311670Y296556D01*
X311660Y296560D01*
X311651Y296565D01*
X311642Y296570D01*
X311633Y296575D01*
X311624Y296581D01*
X311616Y296587D01*
X311608Y296594D01*
X311601Y296601D01*
X311594Y296608D01*
X311587Y296616D01*
X311581Y296624D01*
X311575Y296633D01*
X311570Y296642D01*
X311565Y296651D01*
X311560Y296660D01*
X311556Y296670D01*
X311553Y296679D01*
X311550Y296689D01*
X311548Y296699D01*
X311546Y296709D01*
X311544Y296720D01*
X311544Y296730D01*
X311543Y296740D01*
Y303000D01*
X311544Y303010D01*
D02*
G37*
G36*
X316544D02*
X316544Y303021D01*
X316546Y303031D01*
X316548Y303041D01*
X316550Y303051D01*
X316553Y303061D01*
X316556Y303070D01*
X316560Y303080D01*
X316565Y303089D01*
X316570Y303098D01*
X316575Y303107D01*
X316581Y303116D01*
X316587Y303124D01*
X316594Y303132D01*
X316601Y303139D01*
X316608Y303146D01*
X316616Y303153D01*
X316624Y303159D01*
X316633Y303165D01*
X316642Y303170D01*
X316651Y303175D01*
X316660Y303180D01*
X316670Y303184D01*
X316679Y303187D01*
X316689Y303190D01*
X316699Y303192D01*
X316709Y303194D01*
X316720Y303196D01*
X316730Y303197D01*
X316740Y303197D01*
X319260D01*
X319270Y303197D01*
X319280Y303196D01*
X319291Y303194D01*
X319301Y303192D01*
X319311Y303190D01*
X319321Y303187D01*
X319330Y303184D01*
X319340Y303180D01*
X319349Y303175D01*
X319358Y303170D01*
X319367Y303165D01*
X319376Y303159D01*
X319384Y303153D01*
X319392Y303146D01*
X319399Y303139D01*
X319406Y303132D01*
X319413Y303124D01*
X319419Y303116D01*
X319425Y303107D01*
X319430Y303098D01*
X319435Y303089D01*
X319440Y303080D01*
X319444Y303070D01*
X319447Y303061D01*
X319450Y303051D01*
X319452Y303041D01*
X319454Y303031D01*
X319456Y303021D01*
X319456Y303010D01*
X319457Y303000D01*
Y296740D01*
X319456Y296730D01*
X319456Y296720D01*
X319454Y296709D01*
X319452Y296699D01*
X319450Y296689D01*
X319447Y296679D01*
X319444Y296670D01*
X319440Y296660D01*
X319435Y296651D01*
X319430Y296642D01*
X319425Y296633D01*
X319419Y296624D01*
X319413Y296616D01*
X319406Y296608D01*
X319399Y296601D01*
X319392Y296594D01*
X319384Y296587D01*
X319376Y296581D01*
X319367Y296575D01*
X319358Y296570D01*
X319349Y296565D01*
X319340Y296560D01*
X319330Y296556D01*
X319321Y296553D01*
X319311Y296550D01*
X319301Y296548D01*
X319291Y296546D01*
X319280Y296544D01*
X319270Y296544D01*
X319260Y296543D01*
X316740D01*
X316730Y296544D01*
X316720Y296544D01*
X316709Y296546D01*
X316699Y296548D01*
X316689Y296550D01*
X316679Y296553D01*
X316670Y296556D01*
X316660Y296560D01*
X316651Y296565D01*
X316642Y296570D01*
X316633Y296575D01*
X316624Y296581D01*
X316616Y296587D01*
X316608Y296594D01*
X316601Y296601D01*
X316594Y296608D01*
X316587Y296616D01*
X316581Y296624D01*
X316575Y296633D01*
X316570Y296642D01*
X316565Y296651D01*
X316560Y296660D01*
X316556Y296670D01*
X316553Y296679D01*
X316550Y296689D01*
X316548Y296699D01*
X316546Y296709D01*
X316544Y296720D01*
X316544Y296730D01*
X316543Y296740D01*
Y303000D01*
X316544Y303010D01*
D02*
G37*
G36*
X319270Y324456D02*
X319280Y324456D01*
X319291Y324454D01*
X319301Y324452D01*
X319311Y324450D01*
X319321Y324447D01*
X319330Y324444D01*
X319340Y324440D01*
X319349Y324435D01*
X319358Y324430D01*
X319367Y324425D01*
X319376Y324419D01*
X319384Y324413D01*
X319392Y324406D01*
X319399Y324399D01*
X319406Y324392D01*
X319413Y324384D01*
X319419Y324376D01*
X319425Y324367D01*
X319430Y324358D01*
X319435Y324349D01*
X319440Y324340D01*
X319444Y324330D01*
X319447Y324321D01*
X319450Y324311D01*
X319452Y324301D01*
X319454Y324291D01*
X319456Y324280D01*
X319456Y324270D01*
X319457Y324260D01*
Y318000D01*
X319456Y317990D01*
X319456Y317979D01*
X319454Y317969D01*
X319452Y317959D01*
X319450Y317949D01*
X319447Y317939D01*
X319444Y317930D01*
X319440Y317920D01*
X319435Y317911D01*
X319430Y317902D01*
X319425Y317893D01*
X319419Y317884D01*
X319413Y317876D01*
X319406Y317868D01*
X319399Y317861D01*
X319392Y317854D01*
X319384Y317847D01*
X319376Y317841D01*
X319367Y317835D01*
X319358Y317829D01*
X319349Y317825D01*
X319340Y317820D01*
X319330Y317816D01*
X319321Y317813D01*
X319311Y317810D01*
X319301Y317808D01*
X319291Y317806D01*
X319280Y317804D01*
X319270Y317803D01*
X319260Y317803D01*
X316740D01*
X316730Y317803D01*
X316720Y317804D01*
X316709Y317806D01*
X316699Y317808D01*
X316689Y317810D01*
X316679Y317813D01*
X316670Y317816D01*
X316660Y317820D01*
X316651Y317825D01*
X316642Y317829D01*
X316633Y317835D01*
X316624Y317841D01*
X316616Y317847D01*
X316608Y317854D01*
X316601Y317861D01*
X316594Y317868D01*
X316587Y317876D01*
X316581Y317884D01*
X316575Y317893D01*
X316570Y317902D01*
X316565Y317911D01*
X316560Y317920D01*
X316556Y317930D01*
X316553Y317939D01*
X316550Y317949D01*
X316548Y317959D01*
X316546Y317969D01*
X316544Y317979D01*
X316544Y317990D01*
X316543Y318000D01*
Y324260D01*
X316544Y324270D01*
X316544Y324280D01*
X316546Y324291D01*
X316548Y324301D01*
X316550Y324311D01*
X316553Y324321D01*
X316556Y324330D01*
X316560Y324340D01*
X316565Y324349D01*
X316570Y324358D01*
X316575Y324367D01*
X316581Y324376D01*
X316587Y324384D01*
X316594Y324392D01*
X316601Y324399D01*
X316608Y324406D01*
X316616Y324413D01*
X316624Y324419D01*
X316633Y324425D01*
X316642Y324430D01*
X316651Y324435D01*
X316660Y324440D01*
X316670Y324444D01*
X316679Y324447D01*
X316689Y324450D01*
X316699Y324452D01*
X316709Y324454D01*
X316720Y324456D01*
X316730Y324456D01*
X316740Y324457D01*
X319260D01*
X319270Y324456D01*
D02*
G37*
G36*
X314270D02*
X314280Y324456D01*
X314291Y324454D01*
X314301Y324452D01*
X314311Y324450D01*
X314321Y324447D01*
X314330Y324444D01*
X314340Y324440D01*
X314349Y324435D01*
X314358Y324430D01*
X314367Y324425D01*
X314376Y324419D01*
X314384Y324413D01*
X314392Y324406D01*
X314399Y324399D01*
X314406Y324392D01*
X314413Y324384D01*
X314419Y324376D01*
X314425Y324367D01*
X314430Y324358D01*
X314435Y324349D01*
X314440Y324340D01*
X314444Y324330D01*
X314447Y324321D01*
X314450Y324311D01*
X314452Y324301D01*
X314454Y324291D01*
X314456Y324280D01*
X314456Y324270D01*
X314457Y324260D01*
Y318000D01*
X314456Y317990D01*
X314456Y317979D01*
X314454Y317969D01*
X314452Y317959D01*
X314450Y317949D01*
X314447Y317939D01*
X314444Y317930D01*
X314440Y317920D01*
X314435Y317911D01*
X314430Y317902D01*
X314425Y317893D01*
X314419Y317884D01*
X314413Y317876D01*
X314406Y317868D01*
X314399Y317861D01*
X314392Y317854D01*
X314384Y317847D01*
X314376Y317841D01*
X314367Y317835D01*
X314358Y317829D01*
X314349Y317825D01*
X314340Y317820D01*
X314330Y317816D01*
X314321Y317813D01*
X314311Y317810D01*
X314301Y317808D01*
X314291Y317806D01*
X314280Y317804D01*
X314270Y317803D01*
X314260Y317803D01*
X311740D01*
X311730Y317803D01*
X311720Y317804D01*
X311709Y317806D01*
X311699Y317808D01*
X311689Y317810D01*
X311679Y317813D01*
X311670Y317816D01*
X311660Y317820D01*
X311651Y317825D01*
X311642Y317829D01*
X311633Y317835D01*
X311624Y317841D01*
X311616Y317847D01*
X311608Y317854D01*
X311601Y317861D01*
X311594Y317868D01*
X311587Y317876D01*
X311581Y317884D01*
X311575Y317893D01*
X311570Y317902D01*
X311565Y317911D01*
X311560Y317920D01*
X311556Y317930D01*
X311553Y317939D01*
X311550Y317949D01*
X311548Y317959D01*
X311546Y317969D01*
X311544Y317979D01*
X311544Y317990D01*
X311543Y318000D01*
Y324260D01*
X311544Y324270D01*
X311544Y324280D01*
X311546Y324291D01*
X311548Y324301D01*
X311550Y324311D01*
X311553Y324321D01*
X311556Y324330D01*
X311560Y324340D01*
X311565Y324349D01*
X311570Y324358D01*
X311575Y324367D01*
X311581Y324376D01*
X311587Y324384D01*
X311594Y324392D01*
X311601Y324399D01*
X311608Y324406D01*
X311616Y324413D01*
X311624Y324419D01*
X311633Y324425D01*
X311642Y324430D01*
X311651Y324435D01*
X311660Y324440D01*
X311670Y324444D01*
X311679Y324447D01*
X311689Y324450D01*
X311699Y324452D01*
X311709Y324454D01*
X311720Y324456D01*
X311730Y324456D01*
X311740Y324457D01*
X314260D01*
X314270Y324456D01*
D02*
G37*
G36*
X309270D02*
X309280Y324456D01*
X309291Y324454D01*
X309301Y324452D01*
X309311Y324450D01*
X309321Y324447D01*
X309330Y324444D01*
X309340Y324440D01*
X309349Y324435D01*
X309358Y324430D01*
X309367Y324425D01*
X309376Y324419D01*
X309384Y324413D01*
X309392Y324406D01*
X309399Y324399D01*
X309406Y324392D01*
X309413Y324384D01*
X309419Y324376D01*
X309425Y324367D01*
X309430Y324358D01*
X309435Y324349D01*
X309440Y324340D01*
X309444Y324330D01*
X309447Y324321D01*
X309450Y324311D01*
X309452Y324301D01*
X309454Y324291D01*
X309456Y324280D01*
X309456Y324270D01*
X309457Y324260D01*
Y318000D01*
X309456Y317990D01*
X309456Y317979D01*
X309454Y317969D01*
X309452Y317959D01*
X309450Y317949D01*
X309447Y317939D01*
X309444Y317930D01*
X309440Y317920D01*
X309435Y317911D01*
X309430Y317902D01*
X309425Y317893D01*
X309419Y317884D01*
X309413Y317876D01*
X309406Y317868D01*
X309399Y317861D01*
X309392Y317854D01*
X309384Y317847D01*
X309376Y317841D01*
X309367Y317835D01*
X309358Y317829D01*
X309349Y317825D01*
X309340Y317820D01*
X309330Y317816D01*
X309321Y317813D01*
X309311Y317810D01*
X309301Y317808D01*
X309291Y317806D01*
X309280Y317804D01*
X309270Y317803D01*
X309260Y317803D01*
X306740D01*
X306730Y317803D01*
X306720Y317804D01*
X306709Y317806D01*
X306699Y317808D01*
X306689Y317810D01*
X306679Y317813D01*
X306670Y317816D01*
X306660Y317820D01*
X306651Y317825D01*
X306642Y317829D01*
X306633Y317835D01*
X306624Y317841D01*
X306616Y317847D01*
X306608Y317854D01*
X306601Y317861D01*
X306594Y317868D01*
X306587Y317876D01*
X306581Y317884D01*
X306575Y317893D01*
X306570Y317902D01*
X306565Y317911D01*
X306560Y317920D01*
X306556Y317930D01*
X306553Y317939D01*
X306550Y317949D01*
X306548Y317959D01*
X306546Y317969D01*
X306544Y317979D01*
X306544Y317990D01*
X306543Y318000D01*
Y324260D01*
X306544Y324270D01*
X306544Y324280D01*
X306546Y324291D01*
X306548Y324301D01*
X306550Y324311D01*
X306553Y324321D01*
X306556Y324330D01*
X306560Y324340D01*
X306565Y324349D01*
X306570Y324358D01*
X306575Y324367D01*
X306581Y324376D01*
X306587Y324384D01*
X306594Y324392D01*
X306601Y324399D01*
X306608Y324406D01*
X306616Y324413D01*
X306624Y324419D01*
X306633Y324425D01*
X306642Y324430D01*
X306651Y324435D01*
X306660Y324440D01*
X306670Y324444D01*
X306679Y324447D01*
X306689Y324450D01*
X306699Y324452D01*
X306709Y324454D01*
X306720Y324456D01*
X306730Y324456D01*
X306740Y324457D01*
X309260D01*
X309270Y324456D01*
D02*
G37*
G36*
X304270D02*
X304280Y324456D01*
X304291Y324454D01*
X304301Y324452D01*
X304311Y324450D01*
X304321Y324447D01*
X304330Y324444D01*
X304340Y324440D01*
X304349Y324435D01*
X304358Y324430D01*
X304367Y324425D01*
X304376Y324419D01*
X304384Y324413D01*
X304392Y324406D01*
X304399Y324399D01*
X304406Y324392D01*
X304413Y324384D01*
X304419Y324376D01*
X304425Y324367D01*
X304430Y324358D01*
X304435Y324349D01*
X304440Y324340D01*
X304444Y324330D01*
X304447Y324321D01*
X304450Y324311D01*
X304452Y324301D01*
X304454Y324291D01*
X304456Y324280D01*
X304456Y324270D01*
X304457Y324260D01*
Y318000D01*
X304456Y317990D01*
X304456Y317979D01*
X304454Y317969D01*
X304452Y317959D01*
X304450Y317949D01*
X304447Y317939D01*
X304444Y317930D01*
X304440Y317920D01*
X304435Y317911D01*
X304430Y317902D01*
X304425Y317893D01*
X304419Y317884D01*
X304413Y317876D01*
X304406Y317868D01*
X304399Y317861D01*
X304392Y317854D01*
X304384Y317847D01*
X304376Y317841D01*
X304367Y317835D01*
X304358Y317829D01*
X304349Y317825D01*
X304340Y317820D01*
X304330Y317816D01*
X304321Y317813D01*
X304311Y317810D01*
X304301Y317808D01*
X304291Y317806D01*
X304280Y317804D01*
X304270Y317803D01*
X304260Y317803D01*
X301740D01*
X301730Y317803D01*
X301720Y317804D01*
X301709Y317806D01*
X301699Y317808D01*
X301689Y317810D01*
X301679Y317813D01*
X301670Y317816D01*
X301660Y317820D01*
X301651Y317825D01*
X301642Y317829D01*
X301633Y317835D01*
X301624Y317841D01*
X301616Y317847D01*
X301608Y317854D01*
X301601Y317861D01*
X301594Y317868D01*
X301587Y317876D01*
X301581Y317884D01*
X301575Y317893D01*
X301570Y317902D01*
X301565Y317911D01*
X301560Y317920D01*
X301556Y317930D01*
X301553Y317939D01*
X301550Y317949D01*
X301548Y317959D01*
X301546Y317969D01*
X301544Y317979D01*
X301544Y317990D01*
X301543Y318000D01*
Y324260D01*
X301544Y324270D01*
X301544Y324280D01*
X301546Y324291D01*
X301548Y324301D01*
X301550Y324311D01*
X301553Y324321D01*
X301556Y324330D01*
X301560Y324340D01*
X301565Y324349D01*
X301570Y324358D01*
X301575Y324367D01*
X301581Y324376D01*
X301587Y324384D01*
X301594Y324392D01*
X301601Y324399D01*
X301608Y324406D01*
X301616Y324413D01*
X301624Y324419D01*
X301633Y324425D01*
X301642Y324430D01*
X301651Y324435D01*
X301660Y324440D01*
X301670Y324444D01*
X301679Y324447D01*
X301689Y324450D01*
X301699Y324452D01*
X301709Y324454D01*
X301720Y324456D01*
X301730Y324456D01*
X301740Y324457D01*
X304260D01*
X304270Y324456D01*
D02*
G37*
G36*
X317193Y305165D02*
X303807D01*
Y315835D01*
X317193D01*
Y305165D01*
D02*
G37*
D18*
X314846Y338000D02*
D03*
X308154D02*
D03*
X337154Y299500D02*
D03*
X343847D02*
D03*
D19*
X326500Y306347D02*
D03*
Y299654D02*
D03*
D20*
X472165Y320500D02*
D03*
X461260D02*
D03*
X450354D02*
D03*
X439448D02*
D03*
X433996Y309319D02*
D03*
X444901D02*
D03*
X455807D02*
D03*
X466712D02*
D03*
X193052Y320500D02*
D03*
X182146D02*
D03*
X171241D02*
D03*
X160335D02*
D03*
X154882Y309319D02*
D03*
X165788D02*
D03*
X176693D02*
D03*
X187599D02*
D03*
D21*
X477618D02*
D03*
X198504D02*
D03*
D22*
X505000Y314910D02*
D03*
X406614D02*
D03*
X225886D02*
D03*
X127500D02*
D03*
D23*
X145500Y243500D02*
D03*
X155500D02*
D03*
X230875D02*
D03*
X240875D02*
D03*
X316250D02*
D03*
X326250D02*
D03*
X401625D02*
D03*
X411625D02*
D03*
X487000D02*
D03*
X497000D02*
D03*
D24*
X165500Y223500D02*
D03*
X125500D02*
D03*
X250875D02*
D03*
X210875D02*
D03*
X336250D02*
D03*
X296250D02*
D03*
X421625D02*
D03*
X381625D02*
D03*
X507000D02*
D03*
X467000D02*
D03*
D25*
X302823Y307941D02*
D03*
Y313059D02*
D03*
X307941Y307941D02*
D03*
Y313059D02*
D03*
X313059Y307941D02*
D03*
Y313059D02*
D03*
X318177Y307941D02*
D03*
Y313059D02*
D03*
D26*
X520000Y350000D02*
D03*
X525000Y340000D02*
D03*
X520000Y330000D02*
D03*
X525000Y320000D02*
D03*
X520000Y310000D02*
D03*
X525000Y300000D02*
D03*
X520000Y290000D02*
D03*
X525000Y280000D02*
D03*
X520000Y270000D02*
D03*
X525000Y260000D02*
D03*
X520000Y250000D02*
D03*
X525000Y240000D02*
D03*
X520000Y230000D02*
D03*
X525000Y220000D02*
D03*
X520000Y210000D02*
D03*
X525000Y200000D02*
D03*
X520000Y190000D02*
D03*
X525000Y180000D02*
D03*
X520000Y170000D02*
D03*
X525000Y160000D02*
D03*
X520000Y150000D02*
D03*
X525000Y140000D02*
D03*
X520000Y130000D02*
D03*
X525000Y120000D02*
D03*
X520000Y110000D02*
D03*
X510000Y350000D02*
D03*
X515000Y340000D02*
D03*
X510000Y330000D02*
D03*
X515000Y300000D02*
D03*
X510000Y290000D02*
D03*
X515000Y280000D02*
D03*
X510000Y270000D02*
D03*
X515000Y260000D02*
D03*
X510000Y250000D02*
D03*
X515000Y240000D02*
D03*
Y220000D02*
D03*
X510000Y210000D02*
D03*
X515000Y200000D02*
D03*
X510000Y190000D02*
D03*
X515000Y180000D02*
D03*
X510000Y170000D02*
D03*
X515000Y160000D02*
D03*
X510000Y150000D02*
D03*
X515000Y140000D02*
D03*
X510000Y130000D02*
D03*
X515000Y120000D02*
D03*
X510000Y110000D02*
D03*
X500000Y350000D02*
D03*
X505000Y340000D02*
D03*
X500000Y330000D02*
D03*
X505000Y300000D02*
D03*
X500000Y290000D02*
D03*
X505000Y280000D02*
D03*
X500000Y270000D02*
D03*
X505000Y260000D02*
D03*
X500000Y250000D02*
D03*
X505000Y240000D02*
D03*
X500000Y230000D02*
D03*
Y210000D02*
D03*
X505000Y200000D02*
D03*
X500000Y190000D02*
D03*
X505000Y180000D02*
D03*
X500000Y170000D02*
D03*
X505000Y160000D02*
D03*
X500000Y150000D02*
D03*
X505000Y140000D02*
D03*
X500000Y130000D02*
D03*
X505000Y120000D02*
D03*
X500000Y110000D02*
D03*
X490000Y350000D02*
D03*
X495000Y340000D02*
D03*
X490000Y330000D02*
D03*
Y310000D02*
D03*
X495000Y300000D02*
D03*
X490000Y290000D02*
D03*
X495000Y280000D02*
D03*
X490000Y270000D02*
D03*
X495000Y260000D02*
D03*
X490000Y250000D02*
D03*
Y230000D02*
D03*
X495000Y220000D02*
D03*
X490000Y210000D02*
D03*
X495000Y200000D02*
D03*
X490000Y190000D02*
D03*
X495000Y180000D02*
D03*
X490000Y170000D02*
D03*
X495000Y160000D02*
D03*
X490000Y150000D02*
D03*
X495000Y140000D02*
D03*
X490000Y130000D02*
D03*
X495000Y120000D02*
D03*
X490000Y110000D02*
D03*
X480000Y350000D02*
D03*
X485000Y340000D02*
D03*
X480000Y330000D02*
D03*
X485000Y320000D02*
D03*
Y300000D02*
D03*
X480000Y290000D02*
D03*
X485000Y280000D02*
D03*
X480000Y270000D02*
D03*
X485000Y260000D02*
D03*
X480000Y230000D02*
D03*
X485000Y220000D02*
D03*
X480000Y210000D02*
D03*
X485000Y200000D02*
D03*
X480000Y190000D02*
D03*
X485000Y180000D02*
D03*
X480000Y170000D02*
D03*
X485000Y160000D02*
D03*
X480000Y150000D02*
D03*
X485000Y140000D02*
D03*
X480000Y130000D02*
D03*
X485000Y120000D02*
D03*
X480000Y110000D02*
D03*
X470000Y350000D02*
D03*
X475000Y340000D02*
D03*
X470000Y330000D02*
D03*
Y250000D02*
D03*
X475000Y220000D02*
D03*
X470000Y210000D02*
D03*
X475000Y200000D02*
D03*
X470000Y190000D02*
D03*
X475000Y180000D02*
D03*
X470000Y170000D02*
D03*
X475000Y160000D02*
D03*
X470000Y150000D02*
D03*
X475000Y140000D02*
D03*
X470000Y130000D02*
D03*
X475000Y120000D02*
D03*
X470000Y110000D02*
D03*
X460000Y350000D02*
D03*
X465000Y340000D02*
D03*
X460000Y330000D02*
D03*
X465000Y300000D02*
D03*
X460000Y290000D02*
D03*
X465000Y280000D02*
D03*
X460000Y270000D02*
D03*
X465000Y260000D02*
D03*
X460000Y250000D02*
D03*
Y230000D02*
D03*
Y210000D02*
D03*
X465000Y200000D02*
D03*
X460000Y190000D02*
D03*
X465000Y180000D02*
D03*
X460000Y170000D02*
D03*
X465000Y160000D02*
D03*
X460000Y150000D02*
D03*
X465000Y140000D02*
D03*
X460000Y130000D02*
D03*
X465000Y120000D02*
D03*
X460000Y110000D02*
D03*
X450000Y350000D02*
D03*
X455000Y340000D02*
D03*
X450000Y330000D02*
D03*
Y290000D02*
D03*
X455000Y280000D02*
D03*
X450000Y270000D02*
D03*
X455000Y260000D02*
D03*
X450000Y250000D02*
D03*
Y230000D02*
D03*
X455000Y220000D02*
D03*
X450000Y210000D02*
D03*
X455000Y200000D02*
D03*
X450000Y190000D02*
D03*
X455000Y180000D02*
D03*
X450000Y170000D02*
D03*
X455000Y160000D02*
D03*
X450000Y150000D02*
D03*
X455000Y140000D02*
D03*
X450000Y130000D02*
D03*
X455000Y120000D02*
D03*
X450000Y110000D02*
D03*
X440000Y350000D02*
D03*
X445000Y340000D02*
D03*
X440000Y330000D02*
D03*
X445000Y300000D02*
D03*
Y280000D02*
D03*
X440000Y270000D02*
D03*
X445000Y260000D02*
D03*
X440000Y250000D02*
D03*
Y230000D02*
D03*
X445000Y220000D02*
D03*
X440000Y210000D02*
D03*
X445000Y200000D02*
D03*
X440000Y190000D02*
D03*
X445000Y180000D02*
D03*
X440000Y170000D02*
D03*
X445000Y160000D02*
D03*
X440000Y150000D02*
D03*
X445000Y140000D02*
D03*
X440000Y130000D02*
D03*
X445000Y120000D02*
D03*
X440000Y110000D02*
D03*
X430000Y350000D02*
D03*
X435000Y340000D02*
D03*
Y300000D02*
D03*
Y280000D02*
D03*
X430000Y270000D02*
D03*
X435000Y260000D02*
D03*
X430000Y250000D02*
D03*
Y230000D02*
D03*
X435000Y220000D02*
D03*
X430000Y210000D02*
D03*
X435000Y200000D02*
D03*
X430000Y190000D02*
D03*
X435000Y180000D02*
D03*
X430000Y170000D02*
D03*
X435000Y160000D02*
D03*
X430000Y150000D02*
D03*
X435000Y140000D02*
D03*
X430000Y130000D02*
D03*
X435000Y120000D02*
D03*
X430000Y110000D02*
D03*
X420000Y350000D02*
D03*
X425000Y340000D02*
D03*
X420000Y330000D02*
D03*
X425000Y320000D02*
D03*
X420000Y310000D02*
D03*
X425000Y300000D02*
D03*
Y280000D02*
D03*
X420000Y270000D02*
D03*
X425000Y260000D02*
D03*
X420000Y250000D02*
D03*
Y210000D02*
D03*
X425000Y200000D02*
D03*
X420000Y190000D02*
D03*
X425000Y180000D02*
D03*
X420000Y170000D02*
D03*
X425000Y160000D02*
D03*
X420000Y150000D02*
D03*
X425000Y140000D02*
D03*
X420000Y130000D02*
D03*
X425000Y120000D02*
D03*
X420000Y110000D02*
D03*
X410000Y350000D02*
D03*
Y330000D02*
D03*
X415000Y300000D02*
D03*
Y280000D02*
D03*
X410000Y270000D02*
D03*
X415000Y260000D02*
D03*
X410000Y250000D02*
D03*
Y230000D02*
D03*
Y210000D02*
D03*
X415000Y200000D02*
D03*
X410000Y190000D02*
D03*
X415000Y180000D02*
D03*
X410000Y170000D02*
D03*
X415000Y160000D02*
D03*
X410000Y150000D02*
D03*
X415000Y140000D02*
D03*
X410000Y130000D02*
D03*
X415000Y120000D02*
D03*
X410000Y110000D02*
D03*
X400000Y350000D02*
D03*
Y330000D02*
D03*
X405000Y300000D02*
D03*
Y280000D02*
D03*
Y260000D02*
D03*
X400000Y230000D02*
D03*
X405000Y220000D02*
D03*
X400000Y210000D02*
D03*
X405000Y200000D02*
D03*
X400000Y190000D02*
D03*
X405000Y180000D02*
D03*
X400000Y170000D02*
D03*
X405000Y160000D02*
D03*
X400000Y150000D02*
D03*
X405000Y140000D02*
D03*
X400000Y130000D02*
D03*
X405000Y120000D02*
D03*
X400000Y110000D02*
D03*
X390000Y350000D02*
D03*
Y330000D02*
D03*
X395000Y320000D02*
D03*
X390000Y310000D02*
D03*
X395000Y300000D02*
D03*
X390000Y270000D02*
D03*
X395000Y260000D02*
D03*
X390000Y250000D02*
D03*
Y230000D02*
D03*
X395000Y220000D02*
D03*
X390000Y210000D02*
D03*
X395000Y200000D02*
D03*
X390000Y190000D02*
D03*
X395000Y180000D02*
D03*
X390000Y170000D02*
D03*
X395000Y160000D02*
D03*
X390000Y150000D02*
D03*
X395000Y140000D02*
D03*
X390000Y130000D02*
D03*
X395000Y120000D02*
D03*
X390000Y110000D02*
D03*
X380000Y350000D02*
D03*
Y330000D02*
D03*
X385000Y320000D02*
D03*
X380000Y310000D02*
D03*
X385000Y300000D02*
D03*
Y280000D02*
D03*
X380000Y270000D02*
D03*
X385000Y260000D02*
D03*
X380000Y250000D02*
D03*
Y210000D02*
D03*
X385000Y200000D02*
D03*
X380000Y190000D02*
D03*
X385000Y180000D02*
D03*
X380000Y170000D02*
D03*
X385000Y160000D02*
D03*
X380000Y150000D02*
D03*
X385000Y140000D02*
D03*
X380000Y130000D02*
D03*
X385000Y120000D02*
D03*
X380000Y110000D02*
D03*
X370000Y350000D02*
D03*
Y330000D02*
D03*
X375000Y320000D02*
D03*
X370000Y310000D02*
D03*
X375000Y280000D02*
D03*
X370000Y270000D02*
D03*
X375000Y260000D02*
D03*
X370000Y250000D02*
D03*
Y230000D02*
D03*
Y210000D02*
D03*
X375000Y200000D02*
D03*
X370000Y190000D02*
D03*
X375000Y180000D02*
D03*
X370000Y170000D02*
D03*
X375000Y160000D02*
D03*
X370000Y150000D02*
D03*
X375000Y140000D02*
D03*
X370000Y130000D02*
D03*
X375000Y120000D02*
D03*
X370000Y110000D02*
D03*
X360000Y350000D02*
D03*
Y330000D02*
D03*
X365000Y320000D02*
D03*
Y300000D02*
D03*
Y280000D02*
D03*
X360000Y270000D02*
D03*
X365000Y260000D02*
D03*
X360000Y250000D02*
D03*
Y230000D02*
D03*
X365000Y220000D02*
D03*
X360000Y210000D02*
D03*
X365000Y200000D02*
D03*
X360000Y190000D02*
D03*
X365000Y180000D02*
D03*
X360000Y170000D02*
D03*
X365000Y160000D02*
D03*
X360000Y150000D02*
D03*
X365000Y140000D02*
D03*
X360000Y130000D02*
D03*
X365000Y120000D02*
D03*
X360000Y110000D02*
D03*
X350000Y350000D02*
D03*
Y330000D02*
D03*
Y310000D02*
D03*
Y270000D02*
D03*
X355000Y260000D02*
D03*
X350000Y250000D02*
D03*
Y230000D02*
D03*
X355000Y220000D02*
D03*
X350000Y210000D02*
D03*
X355000Y200000D02*
D03*
X350000Y190000D02*
D03*
X355000Y180000D02*
D03*
X350000Y170000D02*
D03*
X355000Y160000D02*
D03*
X350000Y150000D02*
D03*
X355000Y140000D02*
D03*
X350000Y130000D02*
D03*
X355000Y120000D02*
D03*
X350000Y110000D02*
D03*
X340000Y350000D02*
D03*
X345000Y320000D02*
D03*
X340000Y310000D02*
D03*
X345000Y280000D02*
D03*
Y260000D02*
D03*
X340000Y250000D02*
D03*
X345000Y220000D02*
D03*
X340000Y210000D02*
D03*
X345000Y200000D02*
D03*
X340000Y190000D02*
D03*
X345000Y180000D02*
D03*
X340000Y170000D02*
D03*
X345000Y160000D02*
D03*
X340000Y150000D02*
D03*
X345000Y140000D02*
D03*
X340000Y130000D02*
D03*
X345000Y120000D02*
D03*
X340000Y110000D02*
D03*
X330000Y350000D02*
D03*
X335000Y320000D02*
D03*
Y280000D02*
D03*
X330000Y270000D02*
D03*
Y250000D02*
D03*
Y230000D02*
D03*
Y210000D02*
D03*
X335000Y200000D02*
D03*
X330000Y190000D02*
D03*
X335000Y180000D02*
D03*
X330000Y170000D02*
D03*
X335000Y160000D02*
D03*
X330000Y150000D02*
D03*
X335000Y140000D02*
D03*
X330000Y130000D02*
D03*
X335000Y120000D02*
D03*
X330000Y110000D02*
D03*
X320000Y350000D02*
D03*
X325000Y280000D02*
D03*
X320000Y270000D02*
D03*
X325000Y260000D02*
D03*
X320000Y230000D02*
D03*
X325000Y220000D02*
D03*
X320000Y210000D02*
D03*
X325000Y200000D02*
D03*
X320000Y190000D02*
D03*
X325000Y180000D02*
D03*
X320000Y170000D02*
D03*
X325000Y160000D02*
D03*
X320000Y150000D02*
D03*
X325000Y140000D02*
D03*
X320000Y130000D02*
D03*
X325000Y120000D02*
D03*
X320000Y110000D02*
D03*
X310000Y350000D02*
D03*
X315000Y280000D02*
D03*
X310000Y270000D02*
D03*
X315000Y260000D02*
D03*
X310000Y250000D02*
D03*
Y230000D02*
D03*
X315000Y220000D02*
D03*
X310000Y210000D02*
D03*
X315000Y200000D02*
D03*
X310000Y190000D02*
D03*
X315000Y180000D02*
D03*
X310000Y170000D02*
D03*
X315000Y160000D02*
D03*
X310000Y150000D02*
D03*
X315000Y140000D02*
D03*
X310000Y130000D02*
D03*
X315000Y120000D02*
D03*
X310000Y110000D02*
D03*
X300000Y350000D02*
D03*
Y330000D02*
D03*
X305000Y280000D02*
D03*
X300000Y270000D02*
D03*
X305000Y260000D02*
D03*
X300000Y250000D02*
D03*
X305000Y220000D02*
D03*
X300000Y210000D02*
D03*
X305000Y200000D02*
D03*
X300000Y190000D02*
D03*
X305000Y180000D02*
D03*
X300000Y170000D02*
D03*
X305000Y160000D02*
D03*
X300000Y150000D02*
D03*
X305000Y140000D02*
D03*
X300000Y130000D02*
D03*
X305000Y120000D02*
D03*
X300000Y110000D02*
D03*
X290000Y350000D02*
D03*
Y330000D02*
D03*
X295000Y320000D02*
D03*
X290000Y310000D02*
D03*
X295000Y300000D02*
D03*
Y280000D02*
D03*
X290000Y270000D02*
D03*
X295000Y260000D02*
D03*
X290000Y250000D02*
D03*
Y230000D02*
D03*
Y210000D02*
D03*
X295000Y200000D02*
D03*
X290000Y190000D02*
D03*
X295000Y180000D02*
D03*
X290000Y170000D02*
D03*
X295000Y160000D02*
D03*
X290000Y150000D02*
D03*
X295000Y140000D02*
D03*
X290000Y130000D02*
D03*
X295000Y120000D02*
D03*
X290000Y110000D02*
D03*
X280000Y350000D02*
D03*
Y330000D02*
D03*
X285000Y320000D02*
D03*
X280000Y310000D02*
D03*
X285000Y300000D02*
D03*
Y280000D02*
D03*
X280000Y270000D02*
D03*
X285000Y260000D02*
D03*
X280000Y250000D02*
D03*
Y230000D02*
D03*
X285000Y220000D02*
D03*
X280000Y210000D02*
D03*
X285000Y200000D02*
D03*
X280000Y190000D02*
D03*
X285000Y180000D02*
D03*
X280000Y170000D02*
D03*
X285000Y160000D02*
D03*
X280000Y150000D02*
D03*
X285000Y140000D02*
D03*
X280000Y130000D02*
D03*
X285000Y120000D02*
D03*
X280000Y110000D02*
D03*
X270000Y350000D02*
D03*
Y330000D02*
D03*
X275000Y320000D02*
D03*
X270000Y310000D02*
D03*
X275000Y300000D02*
D03*
Y280000D02*
D03*
X270000Y270000D02*
D03*
X275000Y260000D02*
D03*
X270000Y250000D02*
D03*
Y230000D02*
D03*
X275000Y220000D02*
D03*
X270000Y210000D02*
D03*
X275000Y200000D02*
D03*
X270000Y190000D02*
D03*
X275000Y180000D02*
D03*
X270000Y170000D02*
D03*
X275000Y160000D02*
D03*
X270000Y150000D02*
D03*
X275000Y140000D02*
D03*
X270000Y130000D02*
D03*
X275000Y120000D02*
D03*
X270000Y110000D02*
D03*
X260000Y350000D02*
D03*
Y330000D02*
D03*
X265000Y320000D02*
D03*
X260000Y310000D02*
D03*
X265000Y300000D02*
D03*
Y280000D02*
D03*
X260000Y270000D02*
D03*
X265000Y260000D02*
D03*
X260000Y250000D02*
D03*
Y230000D02*
D03*
X265000Y220000D02*
D03*
X260000Y210000D02*
D03*
X265000Y200000D02*
D03*
X260000Y190000D02*
D03*
X265000Y180000D02*
D03*
X260000Y170000D02*
D03*
X265000Y160000D02*
D03*
X260000Y150000D02*
D03*
X265000Y140000D02*
D03*
X260000Y130000D02*
D03*
X265000Y120000D02*
D03*
X260000Y110000D02*
D03*
X250000Y350000D02*
D03*
Y330000D02*
D03*
X255000Y320000D02*
D03*
X250000Y310000D02*
D03*
X255000Y300000D02*
D03*
Y280000D02*
D03*
X250000Y270000D02*
D03*
X255000Y260000D02*
D03*
X250000Y250000D02*
D03*
Y210000D02*
D03*
X255000Y200000D02*
D03*
X250000Y190000D02*
D03*
X255000Y180000D02*
D03*
X250000Y170000D02*
D03*
X255000Y160000D02*
D03*
X250000Y150000D02*
D03*
X255000Y140000D02*
D03*
X250000Y130000D02*
D03*
X255000Y120000D02*
D03*
X250000Y110000D02*
D03*
X240000Y350000D02*
D03*
Y330000D02*
D03*
X245000Y320000D02*
D03*
X240000Y310000D02*
D03*
X245000Y300000D02*
D03*
Y280000D02*
D03*
X240000Y270000D02*
D03*
X245000Y260000D02*
D03*
X240000Y250000D02*
D03*
Y230000D02*
D03*
Y210000D02*
D03*
X245000Y200000D02*
D03*
X240000Y190000D02*
D03*
X245000Y180000D02*
D03*
X240000Y170000D02*
D03*
X245000Y160000D02*
D03*
X240000Y150000D02*
D03*
X245000Y140000D02*
D03*
X240000Y130000D02*
D03*
X245000Y120000D02*
D03*
X240000Y110000D02*
D03*
X230000Y350000D02*
D03*
Y330000D02*
D03*
X235000Y300000D02*
D03*
Y280000D02*
D03*
Y260000D02*
D03*
X230000Y230000D02*
D03*
X235000Y220000D02*
D03*
X230000Y210000D02*
D03*
X235000Y200000D02*
D03*
X230000Y190000D02*
D03*
X235000Y180000D02*
D03*
X230000Y170000D02*
D03*
X235000Y160000D02*
D03*
X230000Y150000D02*
D03*
X235000Y140000D02*
D03*
X230000Y130000D02*
D03*
X235000Y120000D02*
D03*
X230000Y110000D02*
D03*
X220000Y350000D02*
D03*
Y330000D02*
D03*
X225000Y300000D02*
D03*
Y280000D02*
D03*
X220000Y270000D02*
D03*
X225000Y260000D02*
D03*
X220000Y250000D02*
D03*
Y230000D02*
D03*
X225000Y220000D02*
D03*
X220000Y210000D02*
D03*
X225000Y200000D02*
D03*
X220000Y190000D02*
D03*
X225000Y180000D02*
D03*
X220000Y170000D02*
D03*
X225000Y160000D02*
D03*
X220000Y150000D02*
D03*
X225000Y140000D02*
D03*
X220000Y130000D02*
D03*
X225000Y120000D02*
D03*
X220000Y110000D02*
D03*
X210000Y350000D02*
D03*
Y330000D02*
D03*
Y310000D02*
D03*
X215000Y300000D02*
D03*
X210000Y270000D02*
D03*
X215000Y260000D02*
D03*
X210000Y250000D02*
D03*
Y210000D02*
D03*
X215000Y200000D02*
D03*
X210000Y190000D02*
D03*
X215000Y180000D02*
D03*
X210000Y170000D02*
D03*
X215000Y160000D02*
D03*
X210000Y150000D02*
D03*
X215000Y140000D02*
D03*
X210000Y130000D02*
D03*
X215000Y120000D02*
D03*
X210000Y110000D02*
D03*
X200000Y350000D02*
D03*
Y330000D02*
D03*
X205000Y320000D02*
D03*
Y280000D02*
D03*
X200000Y270000D02*
D03*
X205000Y260000D02*
D03*
X200000Y250000D02*
D03*
Y230000D02*
D03*
Y210000D02*
D03*
X205000Y200000D02*
D03*
X200000Y190000D02*
D03*
X205000Y180000D02*
D03*
X200000Y170000D02*
D03*
X205000Y160000D02*
D03*
X200000Y150000D02*
D03*
X205000Y140000D02*
D03*
X200000Y130000D02*
D03*
X205000Y120000D02*
D03*
X200000Y110000D02*
D03*
X190000Y350000D02*
D03*
Y330000D02*
D03*
Y290000D02*
D03*
X195000Y280000D02*
D03*
X190000Y270000D02*
D03*
X195000Y260000D02*
D03*
X190000Y250000D02*
D03*
Y230000D02*
D03*
X195000Y220000D02*
D03*
X190000Y210000D02*
D03*
X195000Y200000D02*
D03*
X190000Y190000D02*
D03*
X195000Y180000D02*
D03*
X190000Y170000D02*
D03*
X195000Y160000D02*
D03*
X190000Y150000D02*
D03*
X195000Y140000D02*
D03*
X190000Y130000D02*
D03*
X195000Y120000D02*
D03*
X190000Y110000D02*
D03*
X180000Y350000D02*
D03*
Y330000D02*
D03*
Y290000D02*
D03*
X185000Y280000D02*
D03*
X180000Y270000D02*
D03*
X185000Y260000D02*
D03*
X180000Y250000D02*
D03*
Y230000D02*
D03*
X185000Y220000D02*
D03*
X180000Y210000D02*
D03*
X185000Y200000D02*
D03*
X180000Y190000D02*
D03*
X185000Y180000D02*
D03*
X180000Y170000D02*
D03*
X185000Y160000D02*
D03*
X180000Y150000D02*
D03*
X185000Y140000D02*
D03*
X180000Y130000D02*
D03*
X185000Y120000D02*
D03*
X180000Y110000D02*
D03*
X170000Y350000D02*
D03*
Y330000D02*
D03*
X175000Y300000D02*
D03*
X170000Y290000D02*
D03*
X175000Y280000D02*
D03*
X170000Y270000D02*
D03*
X175000Y260000D02*
D03*
X170000Y250000D02*
D03*
Y230000D02*
D03*
X175000Y220000D02*
D03*
X170000Y210000D02*
D03*
X175000Y200000D02*
D03*
X170000Y190000D02*
D03*
X175000Y180000D02*
D03*
X170000Y170000D02*
D03*
X175000Y160000D02*
D03*
X170000Y150000D02*
D03*
X175000Y140000D02*
D03*
X170000Y130000D02*
D03*
X175000Y120000D02*
D03*
X170000Y110000D02*
D03*
X160000Y350000D02*
D03*
X165000Y300000D02*
D03*
X160000Y290000D02*
D03*
X165000Y280000D02*
D03*
X160000Y270000D02*
D03*
X165000Y260000D02*
D03*
X160000Y250000D02*
D03*
Y230000D02*
D03*
Y210000D02*
D03*
X165000Y200000D02*
D03*
X160000Y190000D02*
D03*
X165000Y180000D02*
D03*
X160000Y170000D02*
D03*
X165000Y160000D02*
D03*
X160000Y150000D02*
D03*
X165000Y140000D02*
D03*
X160000Y130000D02*
D03*
X165000Y120000D02*
D03*
X160000Y110000D02*
D03*
X150000Y350000D02*
D03*
X155000Y340000D02*
D03*
X150000Y330000D02*
D03*
X155000Y300000D02*
D03*
X150000Y290000D02*
D03*
X155000Y280000D02*
D03*
X150000Y270000D02*
D03*
X155000Y260000D02*
D03*
X150000Y250000D02*
D03*
Y230000D02*
D03*
X155000Y220000D02*
D03*
X150000Y210000D02*
D03*
X155000Y200000D02*
D03*
X150000Y190000D02*
D03*
X155000Y180000D02*
D03*
X150000Y170000D02*
D03*
X155000Y160000D02*
D03*
X150000Y150000D02*
D03*
X155000Y140000D02*
D03*
X150000Y130000D02*
D03*
X155000Y120000D02*
D03*
X150000Y110000D02*
D03*
X140000Y350000D02*
D03*
X145000Y340000D02*
D03*
X140000Y330000D02*
D03*
X145000Y320000D02*
D03*
X140000Y310000D02*
D03*
X145000Y300000D02*
D03*
X140000Y290000D02*
D03*
X145000Y280000D02*
D03*
X140000Y270000D02*
D03*
X145000Y260000D02*
D03*
X140000Y250000D02*
D03*
Y230000D02*
D03*
X145000Y220000D02*
D03*
X140000Y210000D02*
D03*
X145000Y200000D02*
D03*
X140000Y190000D02*
D03*
X145000Y180000D02*
D03*
X140000Y170000D02*
D03*
X145000Y160000D02*
D03*
X140000Y150000D02*
D03*
X145000Y140000D02*
D03*
X140000Y130000D02*
D03*
X145000Y120000D02*
D03*
X140000Y110000D02*
D03*
X130000Y350000D02*
D03*
X135000Y340000D02*
D03*
X130000Y330000D02*
D03*
X135000Y300000D02*
D03*
X130000Y290000D02*
D03*
X135000Y280000D02*
D03*
X130000Y270000D02*
D03*
X135000Y260000D02*
D03*
X130000Y250000D02*
D03*
X135000Y240000D02*
D03*
X130000Y230000D02*
D03*
X135000Y220000D02*
D03*
X130000Y210000D02*
D03*
X135000Y200000D02*
D03*
X130000Y190000D02*
D03*
X135000Y180000D02*
D03*
X130000Y170000D02*
D03*
X135000Y160000D02*
D03*
X130000Y150000D02*
D03*
X135000Y140000D02*
D03*
X130000Y130000D02*
D03*
X135000Y120000D02*
D03*
X130000Y110000D02*
D03*
X120000Y350000D02*
D03*
X125000Y340000D02*
D03*
X120000Y330000D02*
D03*
X125000Y300000D02*
D03*
X120000Y290000D02*
D03*
X125000Y280000D02*
D03*
X120000Y270000D02*
D03*
X125000Y260000D02*
D03*
X120000Y250000D02*
D03*
X125000Y240000D02*
D03*
X120000Y230000D02*
D03*
Y210000D02*
D03*
X125000Y200000D02*
D03*
X120000Y190000D02*
D03*
X125000Y180000D02*
D03*
X120000Y170000D02*
D03*
X125000Y160000D02*
D03*
X120000Y150000D02*
D03*
X125000Y140000D02*
D03*
X120000Y130000D02*
D03*
X125000Y120000D02*
D03*
X120000Y110000D02*
D03*
X110000Y350000D02*
D03*
X115000Y340000D02*
D03*
X110000Y330000D02*
D03*
X115000Y320000D02*
D03*
X110000Y310000D02*
D03*
X115000Y300000D02*
D03*
X110000Y290000D02*
D03*
X115000Y280000D02*
D03*
X110000Y270000D02*
D03*
X115000Y260000D02*
D03*
X110000Y250000D02*
D03*
X115000Y240000D02*
D03*
X110000Y230000D02*
D03*
X115000Y220000D02*
D03*
X110000Y210000D02*
D03*
X115000Y200000D02*
D03*
X110000Y190000D02*
D03*
X115000Y180000D02*
D03*
X110000Y170000D02*
D03*
X115000Y160000D02*
D03*
X110000Y150000D02*
D03*
X115000Y140000D02*
D03*
X110000Y130000D02*
D03*
X115000Y120000D02*
D03*
X110000Y110000D02*
D03*
D27*
X313000Y291500D02*
D03*
M02*
