G04*
G04 #@! TF.GenerationSoftware,Altium Limited,Altium Designer,22.11.1 (43)*
G04*
G04 Layer_Color=65535*
%FSLAX25Y25*%
%MOIN*%
G70*
G04*
G04 #@! TF.SameCoordinates,CBAEC89D-BC59-4BCD-ABD7-6F5F8566886D*
G04*
G04*
G04 #@! TF.FilePolarity,Positive*
G04*
G01*
G75*
%ADD10C,0.00787*%
%ADD11C,0.00600*%
%ADD12C,0.00500*%
%ADD13C,0.00900*%
%ADD14C,0.01000*%
D10*
X395157Y293453D02*
X395311Y292479D01*
X395759Y291601D01*
X396455Y290905D01*
X397333Y290457D01*
X398307Y290303D01*
X398307Y339516D02*
X397333Y339362D01*
X396455Y338914D01*
X395759Y338217D01*
X395311Y337339D01*
X395157Y336366D01*
X516456Y336366D02*
X516302Y337339D01*
X515855Y338217D01*
X515158Y338914D01*
X514280Y339362D01*
X513307Y339516D01*
X513307Y290303D02*
X514280Y290457D01*
X515158Y290905D01*
X515855Y291601D01*
X516302Y292479D01*
X516456Y293453D01*
X116044Y293453D02*
X116198Y292479D01*
X116645Y291601D01*
X117342Y290905D01*
X118220Y290457D01*
X119193Y290303D01*
X119193Y339516D02*
X118220Y339362D01*
X117342Y338914D01*
X116645Y338217D01*
X116198Y337339D01*
X116044Y336366D01*
X237343Y336366D02*
X237189Y337339D01*
X236741Y338217D01*
X236045Y338914D01*
X235167Y339362D01*
X234193Y339516D01*
X234193Y290303D02*
X235167Y290457D01*
X236045Y290905D01*
X236741Y291601D01*
X237189Y292479D01*
X237343Y293453D01*
X303394Y294476D02*
X302606D01*
X303394D01*
X398307Y339516D02*
X398307Y339516D01*
X513307D01*
X398307Y290303D02*
X398307Y290303D01*
X513307D01*
X516456Y293453D02*
Y336366D01*
X395157Y293453D02*
Y336366D01*
X119193Y339516D02*
X119193Y339516D01*
X234193D01*
X119193Y290303D02*
X119193Y290303D01*
X234193D01*
X237343Y293453D02*
Y336366D01*
X116044Y293453D02*
Y336366D01*
D11*
X115950Y253398D02*
X175050D01*
X115950Y195598D02*
Y253398D01*
Y195598D02*
X175050D01*
Y253398D01*
X117650Y196598D02*
X173350D01*
X117650Y112298D02*
Y196598D01*
Y112298D02*
X173350D01*
Y196598D01*
X201325Y253398D02*
X260425D01*
X201325Y195598D02*
Y253398D01*
Y195598D02*
X260425D01*
Y253398D01*
X203025Y196598D02*
X258725D01*
X203025Y112298D02*
Y196598D01*
Y112298D02*
X258725D01*
Y196598D01*
X286700Y253398D02*
X345800D01*
X286700Y195598D02*
Y253398D01*
Y195598D02*
X345800D01*
Y253398D01*
X288400Y196598D02*
X344100D01*
X288400Y112298D02*
Y196598D01*
Y112298D02*
X344100D01*
Y196598D01*
X372075Y253398D02*
X431175D01*
X372075Y195598D02*
Y253398D01*
Y195598D02*
X431175D01*
Y253398D01*
X373775Y196598D02*
X429475D01*
X373775Y112298D02*
Y196598D01*
Y112298D02*
X429475D01*
Y196598D01*
X457450Y253398D02*
X516550D01*
X457450Y195598D02*
Y253398D01*
Y195598D02*
X516550D01*
Y253398D01*
X459150Y196598D02*
X514850D01*
X459150Y112298D02*
Y196598D01*
Y112298D02*
X514850D01*
Y196598D01*
X434547Y321723D02*
X433880Y322390D01*
X432548D01*
X431881Y321723D01*
Y319057D01*
X432548Y318391D01*
X433880D01*
X434547Y319057D01*
Y319724D01*
X433880Y320390D01*
X431881D01*
X155433Y321723D02*
X154767Y322390D01*
X153434D01*
X152768Y321723D01*
Y319057D01*
X153434Y318391D01*
X154767D01*
X155433Y319057D01*
Y319724D01*
X154767Y320390D01*
X152768D01*
D12*
X320441Y302823D02*
Y318177D01*
X300559Y302823D02*
Y318177D01*
D13*
X418166Y348599D02*
X416833D01*
X417499D01*
Y345266D01*
X416833Y344600D01*
X416166D01*
X415500Y345266D01*
X422164Y344600D02*
X419499D01*
X422164Y347266D01*
Y347932D01*
X421498Y348599D01*
X420165D01*
X419499Y347932D01*
X423497Y347266D02*
X424164D01*
Y346599D01*
X423497D01*
Y347266D01*
Y345266D02*
X424164D01*
Y344600D01*
X423497D01*
Y345266D01*
X430828Y348599D02*
X433494D01*
X432161D01*
Y344600D01*
X435494D02*
X436827D01*
X437493Y345266D01*
Y346599D01*
X436827Y347266D01*
X435494D01*
X434827Y346599D01*
Y345266D01*
X435494Y344600D01*
X438826Y347266D02*
Y344600D01*
Y345933D01*
X439492Y346599D01*
X440159Y347266D01*
X440825D01*
X445490Y343267D02*
Y347266D01*
X443491D01*
X442825Y346599D01*
Y345266D01*
X443491Y344600D01*
X445490D01*
X446823Y347266D02*
Y345266D01*
X447490Y344600D01*
X449489D01*
Y347266D01*
X452821Y344600D02*
X451488D01*
X450822Y345266D01*
Y346599D01*
X451488Y347266D01*
X452821D01*
X453488Y346599D01*
Y345933D01*
X450822D01*
X461485Y347932D02*
X460819Y348599D01*
X459486D01*
X458819Y347932D01*
Y345266D01*
X459486Y344600D01*
X460819D01*
X461485Y345266D01*
X463484Y344600D02*
X464817D01*
X465484Y345266D01*
Y346599D01*
X464817Y347266D01*
X463484D01*
X462818Y346599D01*
Y345266D01*
X463484Y344600D01*
X466817D02*
Y347266D01*
X468816D01*
X469483Y346599D01*
Y344600D01*
X470816D02*
Y347266D01*
X472815D01*
X473481Y346599D01*
Y344600D01*
X476814D02*
X475481D01*
X474814Y345266D01*
Y346599D01*
X475481Y347266D01*
X476814D01*
X477480Y346599D01*
Y345933D01*
X474814D01*
X481479Y347266D02*
X479479D01*
X478813Y346599D01*
Y345266D01*
X479479Y344600D01*
X481479D01*
X483478Y347932D02*
Y347266D01*
X482812D01*
X484144D01*
X483478D01*
Y345266D01*
X484144Y344600D01*
X486144D02*
X487477D01*
X486810D01*
Y347266D01*
X486144D01*
X490143Y344600D02*
X491475D01*
X492142Y345266D01*
Y346599D01*
X491475Y347266D01*
X490143D01*
X489476Y346599D01*
Y345266D01*
X490143Y344600D01*
X493475D02*
Y347266D01*
X495474D01*
X496141Y346599D01*
Y344600D01*
X145066Y347299D02*
X143733D01*
X144399D01*
Y343966D01*
X143733Y343300D01*
X143067D01*
X142400Y343966D01*
X149065Y347299D02*
X146399D01*
Y345299D01*
X147732Y345966D01*
X148398D01*
X149065Y345299D01*
Y343966D01*
X148398Y343300D01*
X147065D01*
X146399Y343966D01*
X150397Y345966D02*
X151064D01*
Y345299D01*
X150397D01*
Y345966D01*
Y343966D02*
X151064D01*
Y343300D01*
X150397D01*
Y343966D01*
X157728Y347299D02*
Y343300D01*
X159728D01*
X160394Y343966D01*
Y346632D01*
X159728Y347299D01*
X157728D01*
X161727Y343300D02*
Y345966D01*
X163060Y347299D01*
X164393Y345966D01*
Y343300D01*
Y345299D01*
X161727D01*
X168392Y343966D02*
Y346632D01*
X167725Y347299D01*
X166392D01*
X165726Y346632D01*
Y343966D01*
X166392Y343300D01*
X167725D01*
X167059Y344633D02*
X168392Y343300D01*
X167725D02*
X168392Y343966D01*
X176389Y346632D02*
X175723Y347299D01*
X174390D01*
X173723Y346632D01*
Y343966D01*
X174390Y343300D01*
X175723D01*
X176389Y343966D01*
X178388Y343300D02*
X179721D01*
X180388Y343966D01*
Y345299D01*
X179721Y345966D01*
X178388D01*
X177722Y345299D01*
Y343966D01*
X178388Y343300D01*
X181721D02*
Y345966D01*
X183720D01*
X184386Y345299D01*
Y343300D01*
X185719D02*
Y345966D01*
X187719D01*
X188385Y345299D01*
Y343300D01*
X191717D02*
X190384D01*
X189718Y343966D01*
Y345299D01*
X190384Y345966D01*
X191717D01*
X192384Y345299D01*
Y344633D01*
X189718D01*
X196383Y345966D02*
X194383D01*
X193717Y345299D01*
Y343966D01*
X194383Y343300D01*
X196383D01*
X198382Y346632D02*
Y345966D01*
X197715D01*
X199048D01*
X198382D01*
Y343966D01*
X199048Y343300D01*
X201048D02*
X202381D01*
X201714D01*
Y345966D01*
X201048D01*
X205047Y343300D02*
X206379D01*
X207046Y343966D01*
Y345299D01*
X206379Y345966D01*
X205047D01*
X204380Y345299D01*
Y343966D01*
X205047Y343300D01*
X208379D02*
Y345966D01*
X210378D01*
X211045Y345299D01*
Y343300D01*
X124166Y272299D02*
X122833D01*
X123499D01*
Y268966D01*
X122833Y268300D01*
X122167D01*
X121500Y268966D01*
X125499Y268300D02*
X126832D01*
X126165D01*
Y272299D01*
X125499Y271632D01*
X128831Y270966D02*
X129497D01*
Y270299D01*
X128831D01*
Y270966D01*
Y268966D02*
X129497D01*
Y268300D01*
X128831D01*
Y268966D01*
X136162Y272299D02*
X137495D01*
X136828D01*
Y268300D01*
X136162D01*
X137495D01*
X142160Y271632D02*
X141494Y272299D01*
X140161D01*
X139494Y271632D01*
Y268966D01*
X140161Y268300D01*
X141494D01*
X142160Y268966D01*
X146159Y271632D02*
X145492Y272299D01*
X144159D01*
X143493Y271632D01*
Y270966D01*
X144159Y270299D01*
X145492D01*
X146159Y269633D01*
Y268966D01*
X145492Y268300D01*
X144159D01*
X143493Y268966D01*
X151490Y268300D02*
Y272299D01*
X153490D01*
X154156Y271632D01*
Y270299D01*
X153490Y269633D01*
X151490D01*
X156156Y268300D02*
X157488D01*
X158155Y268966D01*
Y270299D01*
X157488Y270966D01*
X156156D01*
X155489Y270299D01*
Y268966D01*
X156156Y268300D01*
X159488Y270966D02*
Y268966D01*
X160154Y268300D01*
X160821Y268966D01*
X161487Y268300D01*
X162153Y268966D01*
Y270966D01*
X165486Y268300D02*
X164153D01*
X163487Y268966D01*
Y270299D01*
X164153Y270966D01*
X165486D01*
X166152Y270299D01*
Y269633D01*
X163487D01*
X167485Y270966D02*
Y268300D01*
Y269633D01*
X168152Y270299D01*
X168818Y270966D01*
X169484D01*
X207866Y272299D02*
X206533D01*
X207199D01*
Y268966D01*
X206533Y268300D01*
X205866D01*
X205200Y268966D01*
X209199Y271632D02*
X209865Y272299D01*
X211198D01*
X211864Y271632D01*
Y270966D01*
X211198Y270299D01*
X210532D01*
X211198D01*
X211864Y269633D01*
Y268966D01*
X211198Y268300D01*
X209865D01*
X209199Y268966D01*
X213197Y270966D02*
X213864D01*
Y270299D01*
X213197D01*
Y270966D01*
Y268966D02*
X213864D01*
Y268300D01*
X213197D01*
Y268966D01*
X216530Y272299D02*
X217863D01*
X217196D01*
Y268300D01*
X216530D01*
X217863D01*
X222528Y271632D02*
X221861Y272299D01*
X220528D01*
X219862Y271632D01*
Y268966D01*
X220528Y268300D01*
X221861D01*
X222528Y268966D01*
X226526Y271632D02*
X225860Y272299D01*
X224527D01*
X223861Y271632D01*
Y270966D01*
X224527Y270299D01*
X225860D01*
X226526Y269633D01*
Y268966D01*
X225860Y268300D01*
X224527D01*
X223861Y268966D01*
X234524Y271632D02*
X233857Y272299D01*
X232524D01*
X231858Y271632D01*
Y268966D01*
X232524Y268300D01*
X233857D01*
X234524Y268966D01*
X236523Y268300D02*
X237856D01*
X238523Y268966D01*
Y270299D01*
X237856Y270966D01*
X236523D01*
X235857Y270299D01*
Y268966D01*
X236523Y268300D01*
X239856D02*
Y270966D01*
X241855D01*
X242521Y270299D01*
Y268300D01*
X244521Y271632D02*
Y270966D01*
X243854D01*
X245187D01*
X244521D01*
Y268966D01*
X245187Y268300D01*
X247186Y270966D02*
Y268300D01*
Y269633D01*
X247853Y270299D01*
X248519Y270966D01*
X249186D01*
X251852Y268300D02*
X253185D01*
X253851Y268966D01*
Y270299D01*
X253185Y270966D01*
X251852D01*
X251185Y270299D01*
Y268966D01*
X251852Y268300D01*
X255184D02*
X256517D01*
X255850D01*
Y272299D01*
X255184D01*
X287266D02*
X285933D01*
X286599D01*
Y268966D01*
X285933Y268300D01*
X285266D01*
X284600Y268966D01*
X290598Y268300D02*
Y272299D01*
X288599Y270299D01*
X291265D01*
X292597Y270966D02*
X293264D01*
Y270299D01*
X292597D01*
Y270966D01*
Y268966D02*
X293264D01*
Y268300D01*
X292597D01*
Y268966D01*
X299928Y268300D02*
Y272299D01*
X301261Y270966D01*
X302594Y272299D01*
Y268300D01*
X304594D02*
X305926D01*
X306593Y268966D01*
Y270299D01*
X305926Y270966D01*
X304594D01*
X303927Y270299D01*
Y268966D01*
X304594Y268300D01*
X308592Y271632D02*
Y270966D01*
X307926D01*
X309259D01*
X308592D01*
Y268966D01*
X309259Y268300D01*
X311925D02*
X313257D01*
X313924Y268966D01*
Y270299D01*
X313257Y270966D01*
X311925D01*
X311258Y270299D01*
Y268966D01*
X311925Y268300D01*
X315257Y270966D02*
Y268300D01*
Y269633D01*
X315923Y270299D01*
X316590Y270966D01*
X317256D01*
X325920Y271632D02*
X325254Y272299D01*
X323921D01*
X323254Y271632D01*
Y268966D01*
X323921Y268300D01*
X325254D01*
X325920Y268966D01*
X327919Y268300D02*
X329252D01*
X329919Y268966D01*
Y270299D01*
X329252Y270966D01*
X327919D01*
X327253Y270299D01*
Y268966D01*
X327919Y268300D01*
X331252D02*
Y270966D01*
X333251D01*
X333917Y270299D01*
Y268300D01*
X335917Y271632D02*
Y270966D01*
X335250D01*
X336583D01*
X335917D01*
Y268966D01*
X336583Y268300D01*
X338583Y270966D02*
Y268300D01*
Y269633D01*
X339249Y270299D01*
X339915Y270966D01*
X340582D01*
X343248Y268300D02*
X344581D01*
X345247Y268966D01*
Y270299D01*
X344581Y270966D01*
X343248D01*
X342581Y270299D01*
Y268966D01*
X343248Y268300D01*
X346580D02*
X347913D01*
X347247D01*
Y272299D01*
X346580D01*
X380266Y273599D02*
X378933D01*
X379599D01*
Y270266D01*
X378933Y269600D01*
X378266D01*
X377600Y270266D01*
X384264Y273599D02*
X382932Y272932D01*
X381599Y271599D01*
Y270266D01*
X382265Y269600D01*
X383598D01*
X384264Y270266D01*
Y270933D01*
X383598Y271599D01*
X381599D01*
X385597Y272266D02*
X386264D01*
Y271599D01*
X385597D01*
Y272266D01*
Y270266D02*
X386264D01*
Y269600D01*
X385597D01*
Y270266D01*
X394928Y269600D02*
Y273599D01*
X392928Y271599D01*
X395594D01*
X399593Y269600D02*
X396927D01*
X399593Y272266D01*
Y272932D01*
X398926Y273599D01*
X397594D01*
X396927Y272932D01*
X400926Y273599D02*
Y270933D01*
X402259Y269600D01*
X403592Y270933D01*
Y273599D01*
X408923D02*
X410256D01*
X409590D01*
Y269600D01*
X408923D01*
X410256D01*
X412255D02*
Y272266D01*
X414255D01*
X414921Y271599D01*
Y269600D01*
X416254Y268267D02*
Y272266D01*
X418254D01*
X418920Y271599D01*
Y270266D01*
X418254Y269600D01*
X416254D01*
X420253Y272266D02*
Y270266D01*
X420919Y269600D01*
X422919D01*
Y272266D01*
X424918Y272932D02*
Y272266D01*
X424252D01*
X425585D01*
X424918D01*
Y270266D01*
X425585Y269600D01*
X465666Y273599D02*
X464333D01*
X464999D01*
Y270266D01*
X464333Y269600D01*
X463666D01*
X463000Y270266D01*
X466999Y273599D02*
X469664D01*
Y272932D01*
X466999Y270266D01*
Y269600D01*
X470997Y272266D02*
X471664D01*
Y271599D01*
X470997D01*
Y272266D01*
Y270266D02*
X471664D01*
Y269600D01*
X470997D01*
Y270266D01*
X480994Y269600D02*
X478328D01*
X480994Y272266D01*
Y272932D01*
X480328Y273599D01*
X478995D01*
X478328Y272932D01*
X484327Y269600D02*
Y273599D01*
X482327Y271599D01*
X484993D01*
X486326Y273599D02*
Y270933D01*
X487659Y269600D01*
X488992Y270933D01*
Y273599D01*
X494323D02*
X495656D01*
X494990D01*
Y269600D01*
X494323D01*
X495656D01*
X497655D02*
Y272266D01*
X499655D01*
X500321Y271599D01*
Y269600D01*
X501654Y268267D02*
Y272266D01*
X503653D01*
X504320Y271599D01*
Y270266D01*
X503653Y269600D01*
X501654D01*
X505653Y272266D02*
Y270266D01*
X506319Y269600D01*
X508319D01*
Y272266D01*
X510318Y272932D02*
Y272266D01*
X509652D01*
X510985D01*
X510318D01*
Y270266D01*
X510985Y269600D01*
D14*
X310599Y348398D02*
X309599Y349398D01*
X307600D01*
X306600Y348398D01*
Y344400D01*
X307600Y343400D01*
X309599D01*
X310599Y344400D01*
X312598Y343400D02*
X314597D01*
X313598D01*
Y349398D01*
X312598Y348398D01*
X300800Y334298D02*
Y329300D01*
X301800Y328300D01*
X303799D01*
X304799Y329300D01*
Y334298D01*
X306798Y328300D02*
X308797D01*
X307798D01*
Y334298D01*
X306798Y333298D01*
X325100Y311900D02*
Y317898D01*
X328099D01*
X329099Y316898D01*
Y314899D01*
X328099Y313899D01*
X325100D01*
X327099D02*
X329099Y311900D01*
X331098D02*
X333097D01*
X332098D01*
Y317898D01*
X331098Y316898D01*
X335600Y304900D02*
Y310898D01*
X338599D01*
X339599Y309898D01*
Y307899D01*
X338599Y306899D01*
X335600D01*
X337599D02*
X339599Y304900D01*
X345597D02*
X341598D01*
X345597Y308899D01*
Y309898D01*
X344597Y310898D01*
X342598D01*
X341598Y309898D01*
M02*
