M48
;Layer_Color=9474304
;FILE_FORMAT=2:4
INCH,TZ
;TYPE=PLATED
T1F00S00C0.0079
T2F00S00C0.0098
T3F00S00C0.0280
T4F00S00C0.0394
T5F00S00C0.0400
T6F00S00C0.0750
T7F00S00C0.1299
%
T01
X31306Y30794
X31818
X30794
X30282
Y31306
X30794
X31306
X31818
T02
X11000Y11000
X12000
X13000
X14000
X15000
X15500Y12000
X14500
X13500
X12500
X11500
X12000Y13000
X13000
X14000
X15000
X15500Y14000
X14500
X13500
X12500
X11500
X12000Y15000
X13000
X14000
X15000
X11000
Y13000
X16000
X17000
X18000
X19000
X20000
X21000
X22000
X23000
X24000
X25000
X26000
X27000
X28000
X29000
X30000
X31000
X30500Y14000
X29500
X28500
X27500
X26500
X25500
X24500
X23500
X22500
X21500
X20500
X19500
X18500
X17500
X16500
X17000Y15000
X18000
X19000
X20000
X21000
X22000
X23000
X24000
X25000
X26000
X27000
X28000
X29000
X30000
X31000
X30500Y12000
X29500
X28500
X27500
X26500
X25500
X24500
X23500
X22500
X21500
X20500
X19500
X18500
X17500
X16500
X17000Y11000
X18000
X19000
X20000
X21000
X22000
X23000
X24000
X25000
X26000
X27000
X28000
X29000
X30000
X31000
X16000
Y15000
X32000
X33000
X34000
X35000
X36000
X37000
X38000
X39000
X40000
X41000
X42000
X43000
X44000
X45000
X46000
X46500Y14000
X45500
X44500
X43500
X42500
X41500
X40500
X39500
X38500
X37500
X36500
X35500
X34500
X33500
X32500
X31500
X32000Y13000
X33000
X34000
X35000
X36000
X37000
X38000
X39000
X40000
X41000
X42000
X43000
X44000
X45000
X46000
X46500Y12000
X45500
X44500
X43500
X42500
X41500
X40500
X39500
X38500
X37500
X36500
X35500
X34500
X33500
X32500
X31500
X32000Y11000
X33000
X34000
X35000
X36000
X37000
X38000
X39000
X40000
X41000
X42000
X43000
X44000
X45000
X46000
X47000
X48000
X49000
X50000
X51000
X52000
X52500Y12000
X51500
X50500
X49500
X48500
X47500
X48000Y13000
X49000
X50000
X51000
X52000
X52500Y14000
X51500
X50500
X49500
X48500
X47500
X48000Y15000
X49000
X50000
X51000
X52000
X47000
Y13000
X47500Y16000
X48500
X49500
X50500
X51500
X52500
X52000Y17000
X51000
X50000
X49000
X48000
X47000
X47500Y18000
X48500
X49500
X50500
X51500
X52500
X52000Y19000
X51000
X50000
X49000
X48000
X47000
X47500Y20000
X48500
X49500
X50500
X51500
X52500
X52000Y21000
X51000
X50000
X49000
X48000
X47000
X47500Y22000
X48500
X49500
X50000Y23000
X49000
X48000
X49000Y25000
X50000
X51000
X52000
X52500Y26000
X51500
X50500
X49500
X48500
X49000Y27000
X50000
X51000
X52000
X52500Y28000
X51500
X50500
X49500
X48500
X49000Y29000
X50000
X51000
X52000
X52500Y30000
X51500
X50500
X49500
X48500
X49000Y31000
X52000
X48000Y29000
Y27000
X47000Y25000
X50500Y24000
X51500
X52500
X52000Y23000
X52500Y22000
X51500
X45500
X44500
X43500
X44000Y23000
X45000
X46000
Y25000
X45000
X44000
X43000
X42000
X41000
X41500Y26000
X42500
X43500
X44500
X45500
X46500
X46000Y27000
X45000
X44000
X43000
X42000
X41000
X41500Y28000
X42500
X43500
X44500
X45500
X46500
X46000Y29000
X45000
X44500Y30000
X43500
X42500
X41500
X40500
X39500
X38500
X39000Y31000
X38000
X37000
X36500Y30000
Y28000
X37500
X38500
X39000Y27000
X38000
X37000
X36000
X35000
X35500Y26000
X36500
X37500
X38500
X39500
X40500
Y28000
X42000Y31000
X46500Y30000
X46000Y21000
X45000
X44000
X43000
X42000
X41000
X40000
X39000
X38000
X37000
X36000
X35000
X34000
X33000
X32000
X32500Y22000
X31500
X32000Y23000
X33000
X35000
X36000
X37000
X36500Y22000
X35500
X34500
Y20000
X35500
X36500
X37500
X38500
X39500
X40500
X41500
X42500
X43500
X44500
X45500
X46500
X46000Y19000
X45000
X44000
X43000
X42000
X41000
X40000
X39000
X38000
X37000
X36000
X35000
X34000
X33000
X32000
X32500Y20000
X33500
Y18000
X34500
X35500
X36500
X37500
X38500
X39500
X40500
X41500
X42500
X43500
X44500
X45500
X46500
X46000Y17000
X45000
X44000
X43000
X42000
X41000
X40000
X39000
X38000
X37000
X36000
X35000
X34000
X33000
X32000
X32500Y18000
X31500
Y20000
Y16000
X32500
X33500
X34500
X35500
X36500
X37500
X38500
X39500
X40500
X41500
X42500
X43500
X44500
X45500
X46500
X43000Y23000
X41000
X40000
X39000
X39500Y22000
X40500
X39000Y25000
X38000
X37000
X36000
X35000
X34000
X33000
X32500Y26000
X31500
X32000Y27000
X33000
X33500Y28000
X34500
Y26000
X32500Y28000
X31500
X34000Y31000
X35000
X29000
X28000
X27000
X26000
X25000
X24000
X24500Y30000
X25500
X26500
X27500
X28500
X29500
Y28000
X30500
X31000Y27000
X30000
X29000
X28000
X27000
X26000
X25000
X24000
X24500Y28000
X25500
X26500
X27500
X28500
Y26000
X29500
X30500
X31000Y25000
X30000
X29000
X28000
X27000
X26000
X25000
X24000
X24500Y26000
X25500
X26500
X27500
X28000Y23000
X29000
X28500Y22000
X27500
X26500
X27000Y23000
X26000
Y21000
X27000
X28000
X29000
X30000
X31000
X30500Y22000
X31000Y23000
X30500Y20000
X29500
X28500
X27500
X26500
X25500
X24500
X23500
X22500
X21500
X20500
X19500
X18500
X17500
X16500
X17000Y21000
X18000
X19000
X20000
X21000
X22000
X23000
X24000
X25000
Y19000
X26000
X27000
X28000
X29000
X30000
X31000
X30500Y18000
X29500
X28500
X27500
X26500
X25500
X24500
X23500
X22500
X21500
X20500
X19500
X18500
X17500
X16500
X17000Y19000
X18000
X19000
X20000
X21000
X22000
X23000
X24000
Y17000
X25000
X26000
X27000
X28000
X29000
X30000
X31000
X30500Y16000
X29500
X28500
X27500
X26500
X25500
X24500
X23500
X22500
X21500
X20500
X19500
X18500
X17500
X16500
X17000Y17000
X18000
X19000
X20000
X21000
X22000
X23000
X23500Y22000
X22500
X23000Y23000
X24000
X22000
Y25000
X21000
X20000
X19000
X18000
X17000
X16000
X16500Y26000
X17500
X18500
X19500
X20500
X21500
X22500
X23500
Y28000
X22500
X22000Y27000
X21000
X20000
X19000
X18000
X17000
X16000
X16500Y28000
X17500
X18500
X19500
X20500
X19000Y29000
X18000
X17000
X16000
X16500Y30000
X17500
X21500
X22500
X23500
X21000Y31000
X20000Y23000
X19000
X18000
X17000
X16000
Y21000
Y19000
Y17000
X17500Y22000
X18500
X19500
X15500
X14500
X13500
X14000Y23000
X15000
Y25000
X14000
X13000
X12000
X11000
X11500Y26000
X12500
X13500
X14500
X15500
X15000Y27000
X14000
X13000
X12000
X11000
X11500Y28000
X12500
X13500
X14500
X15500
X15000Y29000
X14000
X13000
X12000
X11000
X11500Y30000
X12500
X13500
X14500
X15500
X14000Y31000
X11000
X11500Y24000
X12500
X13500
X13000Y23000
X12000
X11000
X11500Y22000
X12000Y21000
X13000
X14000
X15000
X15500Y20000
X14500
X13500
X12500
X11500
X12000Y19000
X13000
X14000
X15000
X15500Y18000
X14500
X13500
X12500
X11500
X12000Y17000
X13000
X14000
X15000
X15500Y16000
X14500
X13500
X12500
X11500
X11000Y17000
Y19000
Y21000
X11500Y32000
X12000Y33000
X13000
X14000
X15000
X15500Y34000
X14500
X13500
X12500
X11500
X12000Y35000
X13000
X14000
X15000
X14500Y32000
X11000Y33000
Y35000
X16000
X17000
X18000
X19000
X20000
X21000
X22000
X23000
X24000
X25000
X26000
X27000
X28000
X29000
X30000
X31000
X30000Y33000
X29000
X28000
X27000
X26000
X25000
X24000
X23000
X22000
X21000
X20000
X19000
X18000
X17000
X20500Y32000
X24500
X25500
X26500
X27500
X28500
X29500
X33500
X34500
X35000Y33000
X36000
X37000
X38000
X39000
X40000
X41000
X42000
X42500Y34000
X43500
X44500
X45500
X46500
X46000Y35000
X45000
X44000
X43000
X42000
X41000
X40000
X39000
X38000
X37000
X36000
X35000
X34000
X33000
X32000
X36500Y32000
X37500
X38500
X39500
X42500
X44000Y33000
X45000
X46000
X47000
X48000
X49000
X50000
X51000
X52000
X52500Y34000
X51500
X50500
X49500
X48500
X47500
X48000Y35000
X49000
X50000
X51000
X52000
X52500Y32000
X48500
X47000Y35000
T03
X31300Y29150
T04
X47762Y30932
X46671
X45581
X44490
X43400
X19850
X18760
X17669
X16579
X15488
X16034Y32050
X17124
X18215
X19305
X43945
X45035
X46126
X47217
T05
X48700Y24350
X49700
X41163
X40163
X32625
X31625
X24088
X23087
X15550
X14550
T06
X50700Y22350
X46700
X42162
X38163
X33625
X29625
X25087
X21088
X16550
X12550
T07
X12750Y31491
X22589
X40661
X50500
M30
