G04*
G04 #@! TF.GenerationSoftware,Altium Limited,Altium Designer,22.11.1 (43)*
G04*
G04 Layer_Color=32896*
%FSLAX25Y25*%
%MOIN*%
G70*
G04*
G04 #@! TF.SameCoordinates,CBAEC89D-BC59-4BCD-ABD7-6F5F8566886D*
G04*
G04*
G04 #@! TF.FilePolarity,Positive*
G04*
G01*
G75*
%ADD14C,0.01000*%
D14*
X465500Y201999D02*
Y207997D01*
X462501D01*
X461501Y206998D01*
Y204998D01*
X462501Y203999D01*
X465500D01*
X459502Y205998D02*
Y201999D01*
Y203999D01*
X458502Y204998D01*
X457503Y205998D01*
X456503D01*
X452504Y201999D02*
X450505D01*
X449505Y202999D01*
Y204998D01*
X450505Y205998D01*
X452504D01*
X453504Y204998D01*
Y202999D01*
X452504Y201999D01*
X447506Y200000D02*
Y205998D01*
X444507D01*
X443507Y204998D01*
Y202999D01*
X444507Y201999D01*
X447506D01*
X438509D02*
X440508D01*
X441508Y202999D01*
Y204998D01*
X440508Y205998D01*
X438509D01*
X437509Y204998D01*
Y203999D01*
X441508D01*
X435510Y205998D02*
Y201999D01*
Y203999D01*
X434510Y204998D01*
X433510Y205998D01*
X432511D01*
X428512Y206998D02*
Y205998D01*
X429512D01*
X427512D01*
X428512D01*
Y202999D01*
X427512Y201999D01*
X424513Y205998D02*
Y202999D01*
X423514Y201999D01*
X420514D01*
Y201000D01*
X421514Y200000D01*
X422514D01*
X420514Y201999D02*
Y205998D01*
X411517Y201999D02*
X409518D01*
X408518Y202999D01*
Y204998D01*
X409518Y205998D01*
X411517D01*
X412517Y204998D01*
Y202999D01*
X411517Y201999D01*
X405519D02*
Y206998D01*
Y204998D01*
X406519D01*
X404520D01*
X405519D01*
Y206998D01*
X404520Y207997D01*
X395523D02*
Y202999D01*
X394523Y201999D01*
X392524D01*
X391524Y202999D01*
Y207997D01*
X389525Y201999D02*
Y205998D01*
X386526D01*
X385526Y204998D01*
Y201999D01*
X383526D02*
X381527D01*
X382527D01*
Y205998D01*
X383526D01*
X378528D02*
X376529Y201999D01*
X374529Y205998D01*
X369531Y201999D02*
X371530D01*
X372530Y202999D01*
Y204998D01*
X371530Y205998D01*
X369531D01*
X368531Y204998D01*
Y203999D01*
X372530D01*
X366532Y205998D02*
Y201999D01*
Y203999D01*
X365532Y204998D01*
X364533Y205998D01*
X363533D01*
X360534Y201999D02*
X357535D01*
X356535Y202999D01*
X357535Y203999D01*
X359534D01*
X360534Y204998D01*
X359534Y205998D01*
X356535D01*
X354536Y201999D02*
X352537D01*
X353536D01*
Y205998D01*
X354536D01*
X348538Y206998D02*
Y205998D01*
X349537D01*
X347538D01*
X348538D01*
Y202999D01*
X347538Y201999D01*
X344539Y205998D02*
Y202999D01*
X343540Y201999D01*
X340540D01*
Y201000D01*
X341540Y200000D01*
X342540D01*
X340540Y201999D02*
Y205998D01*
X331543Y201999D02*
X329544D01*
X328544Y202999D01*
Y204998D01*
X329544Y205998D01*
X331543D01*
X332543Y204998D01*
Y202999D01*
X331543Y201999D01*
X325545D02*
Y206998D01*
Y204998D01*
X326545D01*
X324546D01*
X325545D01*
Y206998D01*
X324546Y207997D01*
X311550Y206998D02*
X312549Y207997D01*
X314549D01*
X315548Y206998D01*
Y202999D01*
X314549Y201999D01*
X312549D01*
X311550Y202999D01*
X308551Y205998D02*
X306551D01*
X305552Y204998D01*
Y201999D01*
X308551D01*
X309550Y202999D01*
X308551Y203999D01*
X305552D01*
X303552Y201999D02*
X301553D01*
X302553D01*
Y207997D01*
X303552D01*
X296555Y200000D02*
X295555D01*
X294555Y201000D01*
Y205998D01*
X297554D01*
X298554Y204998D01*
Y202999D01*
X297554Y201999D01*
X294555D01*
X291556Y205998D02*
X289557D01*
X288557Y204998D01*
Y201999D01*
X291556D01*
X292556Y202999D01*
X291556Y203999D01*
X288557D01*
X286558Y205998D02*
Y201999D01*
Y203999D01*
X285558Y204998D01*
X284559Y205998D01*
X283559D01*
X280560D02*
Y202999D01*
X279560Y201999D01*
X276561D01*
Y201000D01*
X277561Y200000D01*
X278560D01*
X276561Y201999D02*
Y205998D01*
X268564Y201999D02*
Y207997D01*
X266564Y205998D01*
X264565Y207997D01*
Y201999D01*
X259567D02*
X261566D01*
X262566Y202999D01*
Y204998D01*
X261566Y205998D01*
X259567D01*
X258567Y204998D01*
Y203999D01*
X262566D01*
X252569Y205998D02*
X255568D01*
X256568Y204998D01*
Y202999D01*
X255568Y201999D01*
X252569D01*
X250570Y207997D02*
Y201999D01*
Y204998D01*
X249570Y205998D01*
X247570D01*
X246571Y204998D01*
Y201999D01*
X243572Y205998D02*
X241572D01*
X240573Y204998D01*
Y201999D01*
X243572D01*
X244571Y202999D01*
X243572Y203999D01*
X240573D01*
X238573Y201999D02*
Y205998D01*
X235574D01*
X234575Y204998D01*
Y201999D01*
X232575D02*
X230576D01*
X231576D01*
Y205998D01*
X232575D01*
X223578D02*
X226577D01*
X227577Y204998D01*
Y202999D01*
X226577Y201999D01*
X223578D01*
X220579Y205998D02*
X218580D01*
X217580Y204998D01*
Y201999D01*
X220579D01*
X221579Y202999D01*
X220579Y203999D01*
X217580D01*
X215581Y201999D02*
X213581D01*
X214581D01*
Y207997D01*
X215581D01*
X204584D02*
Y201999D01*
X200586D01*
X197587Y205998D02*
X195587D01*
X194588Y204998D01*
Y201999D01*
X197587D01*
X198586Y202999D01*
X197587Y203999D01*
X194588D01*
X192588Y207997D02*
Y201999D01*
X189589D01*
X188590Y202999D01*
Y203999D01*
Y204998D01*
X189589Y205998D01*
X192588D01*
X186590Y201999D02*
X183591D01*
X182591Y202999D01*
X183591Y203999D01*
X185591D01*
X186590Y204998D01*
X185591Y205998D01*
X182591D01*
X412500Y263497D02*
Y257499D01*
X409501D01*
X408501Y258499D01*
Y262498D01*
X409501Y263497D01*
X412500D01*
X403503Y257499D02*
X405502D01*
X406502Y258499D01*
Y260498D01*
X405502Y261498D01*
X403503D01*
X402503Y260498D01*
Y259499D01*
X406502D01*
X400504Y257499D02*
X397505D01*
X396505Y258499D01*
X397505Y259499D01*
X399504D01*
X400504Y260498D01*
X399504Y261498D01*
X396505D01*
X394506Y257499D02*
X392507D01*
X393506D01*
Y261498D01*
X394506D01*
X387508Y255500D02*
X386508D01*
X385509Y256500D01*
Y261498D01*
X388508D01*
X389507Y260498D01*
Y258499D01*
X388508Y257499D01*
X385509D01*
X383509D02*
Y261498D01*
X380510D01*
X379511Y260498D01*
Y257499D01*
X374512D02*
X376512D01*
X377511Y258499D01*
Y260498D01*
X376512Y261498D01*
X374512D01*
X373513Y260498D01*
Y259499D01*
X377511D01*
X367515Y263497D02*
Y257499D01*
X370514D01*
X371513Y258499D01*
Y260498D01*
X370514Y261498D01*
X367515D01*
X359517Y263497D02*
Y257499D01*
X356518D01*
X355518Y258499D01*
Y259499D01*
X356518Y260498D01*
X359517D01*
X356518D01*
X355518Y261498D01*
Y262498D01*
X356518Y263497D01*
X359517D01*
X353519Y261498D02*
Y258499D01*
X352519Y257499D01*
X349520D01*
Y256500D01*
X350520Y255500D01*
X351520D01*
X349520Y257499D02*
Y261498D01*
X341523Y257499D02*
Y261498D01*
X339524Y263497D01*
X337524Y261498D01*
Y257499D01*
Y260498D01*
X341523D01*
X335525Y257499D02*
X333526D01*
X334525D01*
Y263497D01*
X335525D01*
X327527Y257499D02*
X329527D01*
X330526Y258499D01*
Y260498D01*
X329527Y261498D01*
X327527D01*
X326528Y260498D01*
Y259499D01*
X330526D01*
X324529Y257499D02*
Y263497D01*
Y259499D02*
X321529Y261498D01*
X324529Y259499D02*
X321529Y257499D01*
X318530D02*
X315531D01*
X314532Y258499D01*
X315531Y259499D01*
X317531D01*
X318530Y260498D01*
X317531Y261498D01*
X314532D01*
X311533D02*
X309533D01*
X308534Y260498D01*
Y257499D01*
X311533D01*
X312532Y258499D01*
X311533Y259499D01*
X308534D01*
X306534Y257499D02*
Y261498D01*
X303535D01*
X302536Y260498D01*
Y257499D01*
X296537Y263497D02*
Y257499D01*
X299536D01*
X300536Y258499D01*
Y260498D01*
X299536Y261498D01*
X296537D01*
X291539Y257499D02*
X293538D01*
X294538Y258499D01*
Y260498D01*
X293538Y261498D01*
X291539D01*
X290539Y260498D01*
Y259499D01*
X294538D01*
X288540Y261498D02*
Y257499D01*
Y259499D01*
X287540Y260498D01*
X286541Y261498D01*
X285541D01*
X276544Y263497D02*
Y257499D01*
X273545D01*
X272545Y258499D01*
Y259499D01*
X273545Y260498D01*
X276544D01*
X273545D01*
X272545Y261498D01*
Y262498D01*
X273545Y263497D01*
X276544D01*
X267547Y257499D02*
X269546D01*
X270546Y258499D01*
Y260498D01*
X269546Y261498D01*
X267547D01*
X266547Y260498D01*
Y259499D01*
X270546D01*
X264548Y261498D02*
Y257499D01*
Y259499D01*
X263548Y260498D01*
X262548Y261498D01*
X261549D01*
X255551Y257499D02*
X257550D01*
X258550Y258499D01*
Y260498D01*
X257550Y261498D01*
X255551D01*
X254551Y260498D01*
Y259499D01*
X258550D01*
X252552Y261498D02*
X248553D01*
X252552Y257499D01*
X248553D01*
X245554D02*
X243555D01*
X242555Y258499D01*
Y260498D01*
X243555Y261498D01*
X245554D01*
X246554Y260498D01*
Y258499D01*
X245554Y257499D01*
X240556Y261498D02*
Y258499D01*
X239556Y257499D01*
X238556Y258499D01*
X237557Y257499D01*
X236557Y258499D01*
Y261498D01*
X234558Y257499D02*
X231558D01*
X230559Y258499D01*
X231558Y259499D01*
X233558D01*
X234558Y260498D01*
X233558Y261498D01*
X230559D01*
X228559Y257499D02*
Y263497D01*
Y259499D02*
X225560Y261498D01*
X228559Y259499D02*
X225560Y257499D01*
X222561D02*
X220562D01*
X221562D01*
Y261498D01*
X222561D01*
M02*
